<?xml version="1.0" standalone="no"?>
<!DOCTYPE svg PUBLIC "-//W3C//DTD SVG 20010904//EN"
 "http://www.w3.org/TR/2001/REC-SVG-20010904/DTD/svg10.dtd">
<svg version="1.0" xmlns="http://www.w3.org/2000/svg"
 width="750.000000pt" height="750.000000pt" viewBox="0 0 750.000000 750.000000"
 preserveAspectRatio="xMidYMid meet">

<g transform="translate(0.000000,750.000000) scale(0.100000,-0.100000)"
fill="#000000" stroke="none">
<path d="M1240 6280 c0 -207 4 -320 10 -320 6 0 10 110 10 310 l0 310 1510 0
c1000 0 1510 3 1510 10 0 7 -513 10 -1520 10 l-1520 0 0 -320z"/>
<path d="M4560 6590 c0 -6 103 -10 290 -10 187 0 290 4 290 10 0 6 -103 10
-290 10 -187 0 -290 -4 -290 -10z"/>
<path d="M4240 6280 l0 -270 -382 0 c-211 0 -872 -3 -1470 -7 -1046 -6 -1088
-7 -1088 -25 0 -17 41 -18 1138 -18 l1137 -1 -100 -33 c-189 -63 -345 -148
-490 -265 l-80 -66 -802 -3 c-781 -4 -803 -4 -803 -23 0 -19 20 -19 775 -19
l775 0 -74 -87 c-99 -117 -177 -236 -237 -360 l-50 -103 -595 0 c-587 0 -594
0 -594 -20 0 -20 7 -20 594 -20 l594 0 -15 -47 c-96 -311 -89 -680 18 -951 16
-40 29 -77 29 -82 0 -6 -221 -10 -610 -10 -603 0 -610 0 -610 -20 0 -20 7 -20
620 -20 l619 0 28 -47 c49 -85 144 -205 236 -300 l90 -93 -735 0 c-404 0 -763
-3 -797 -6 -52 -6 -61 -10 -61 -27 0 -20 2 -20 820 -13 l821 7 105 -71 c130
-87 254 -147 416 -202 118 -40 129 -42 258 -45 l135 -2 -101 19 c-390 71 -697
227 -934 476 -359 376 -466 885 -295 1400 75 226 190 410 370 590 224 224 486
363 795 420 143 27 401 24 540 -5 308 -65 558 -200 775 -416 92 -93 177 -201
235 -300 19 -32 10 -25 -48 36 -169 180 -369 291 -598 335 -67 12 -121 15
-219 11 -163 -7 -254 -30 -400 -102 -294 -145 -501 -411 -590 -755 -33 -130
-44 -341 -26 -471 68 -464 435 -823 923 -905 131 -22 346 -15 460 15 293 77
517 264 638 533 l35 78 358 0 c350 0 357 0 357 20 0 20 -7 20 -410 20 l-410 0
52 53 c29 29 65 76 81 104 46 86 84 265 58 275 -5 2 -12 58 -15 126 -4 105
-11 142 -46 257 -65 218 -145 382 -256 531 l-44 59 0 557 c0 551 0 558 -20
558 -20 0 -20 -7 -20 -531 l0 -531 -82 78 c-46 42 -115 101 -154 130 -68 51
-240 154 -256 154 -4 0 -8 158 -8 350 0 343 0 350 -20 350 -20 0 -20 -7 -20
-335 0 -184 -2 -335 -4 -335 -2 0 -57 18 -123 40 -65 22 -126 40 -135 40 -17
0 -18 21 -18 295 0 288 0 295 -20 295 -20 0 -20 -7 -20 -270z m415 -750 c155
-42 316 -131 444 -246 94 -84 215 -249 257 -350 l16 -39 -54 52 c-111 104
-232 163 -375 183 -265 36 -521 -110 -638 -365 -40 -86 -54 -144 -61 -243 -16
-228 102 -469 290 -591 215 -140 498 -131 699 23 36 27 57 36 87 36 47 0 49
-6 16 -77 -61 -130 -184 -277 -300 -355 -83 -57 -206 -112 -311 -139 -78 -21
-112 -24 -260 -23 -150 0 -181 4 -267 26 -491 132 -808 528 -808 1010 0 555
370 1027 877 1118 85 15 299 5 388 -20z m340 -452 c28 -5 88 -28 134 -50 194
-92 341 -315 341 -515 l0 -53 -163 0 -164 0 -12 66 c-25 136 -88 221 -187 250
-208 60 -389 -156 -355 -425 17 -131 57 -217 136 -290 91 -84 236 -123 377
-101 39 6 72 9 75 7 9 -10 -134 -69 -199 -83 -186 -40 -376 21 -518 165 -168
171 -221 428 -135 658 78 205 264 356 475 383 60 8 117 5 195 -12z m467 -664
c9 -9 -21 -124 -47 -182 -67 -147 -215 -236 -390 -235 -225 1 -362 126 -394
360 l-8 53 251 3 c138 1 326 3 417 5 91 1 168 -1 171 -4z"/>
<path d="M1232 5278 c2 -238 6 -312 16 -316 9 -3 12 64 12 312 0 276 -2 316
-15 316 -13 0 -15 -39 -13 -312z"/>
<path d="M6160 3515 l0 -515 -1157 -3 -1158 -2 1163 -3 1162 -2 0 278 c0 153
3 387 7 520 5 181 3 242 -5 242 -9 0 -12 -131 -12 -515z"/>
<path d="M1240 3605 c0 -239 2 -265 16 -265 15 0 16 9 10 61 -3 34 -6 154 -6
265 0 129 -4 204 -10 204 -6 0 -10 -95 -10 -265z"/>
</g>
</svg>
