<?xml version="1.0" standalone="no"?>
<!DOCTYPE svg PUBLIC "-//W3C//DTD SVG 20010904//EN"
 "http://www.w3.org/TR/2001/REC-SVG-20010904/DTD/svg10.dtd">
<svg version="1.0" xmlns="http://www.w3.org/2000/svg"
 width="2879.000000pt" height="2461.000000pt" viewBox="0 0 2879.000000 2461.000000"
 preserveAspectRatio="xMidYMid meet">

<g transform="translate(0.000000,2461.000000) scale(0.100000,-0.100000)"
fill="#000000" stroke="none">
<path d="M14035 24584 c-331 -58 -645 -262 -831 -540 -217 -325 -269 -713
-142 -1072 132 -375 445 -676 826 -796 238 -75 511 -73 752 5 362 118 668 428
784 797 45 143 59 257 53 432 -6 164 -26 273 -70 390 -155 411 -493 698 -920
781 -118 23 -331 24 -452 3z"/>
<path d="M16938 24150 c-614 -70 -1084 -562 -1124 -1178 -26 -391 165 -806
478 -1042 153 -116 312 -191 490 -232 127 -30 401 -32 528 -5 441 95 788 402
929 823 82 244 82 533 1 776 -104 311 -346 590 -639 738 -192 96 -453 144
-663 120z"/>
<path d="M11235 23975 c-519 -81 -920 -473 -1019 -994 -21 -109 -21 -340 -1
-457 103 -586 615 -1016 1210 -1015 337 0 642 127 881 366 261 261 401 638
364 981 -40 377 -222 691 -523 905 -91 65 -269 152 -367 179 -174 48 -379 62
-545 35z"/>
<path d="M19245 22680 c-247 -39 -509 -174 -686 -354 -228 -231 -349 -530
-349 -861 0 -655 483 -1186 1140 -1254 374 -39 802 148 1054 461 124 154 214
328 257 500 26 107 37 342 20 458 -64 434 -357 805 -771 974 -135 56 -250 77
-435 81 -93 2 -197 0 -230 -5z"/>
<path d="M8815 22554 c-339 -61 -640 -257 -829 -542 -201 -301 -262 -659 -172
-998 126 -470 516 -826 996 -910 143 -25 391 -15 522 20 672 180 1062 855 882
1527 -124 466 -522 827 -994 904 -116 18 -298 18 -405 -1z"/>
<path d="M15120 21635 c-370 -83 -675 -383 -759 -747 -53 -227 -27 -457 76
-663 213 -427 706 -640 1156 -499 431 136 714 535 694 979 -12 248 -101 454
-277 639 -126 132 -268 219 -445 272 -76 22 -113 27 -235 30 -102 3 -164 -1
-210 -11z"/>
<path d="M12897 21414 c-378 -68 -669 -329 -784 -701 -25 -81 -27 -101 -27
-258 0 -194 14 -263 82 -409 54 -115 112 -198 201 -287 272 -271 672 -360
1035 -228 92 33 224 110 307 181 132 111 264 329 310 513 34 133 32 331 -5
470 -130 494 -621 809 -1119 719z"/>
<path d="M17175 20770 c-392 -55 -696 -319 -806 -699 -46 -158 -45 -384 1
-547 26 -90 90 -222 144 -298 50 -70 170 -188 236 -233 241 -163 564 -212 853
-128 335 97 592 373 669 718 17 78 19 116 15 247 -5 169 -18 233 -72 361 -101
241 -319 445 -565 531 -132 46 -342 67 -475 48z"/>
<path d="M21240 20534 c-294 -28 -561 -153 -771 -363 -238 -238 -359 -530
-359 -866 0 -337 127 -641 370 -886 281 -282 662 -412 1040 -354 144 22 233
50 365 115 209 103 366 240 492 432 99 151 157 296 188 475 19 109 19 312 0
430 -82 503 -455 892 -953 992 -97 20 -288 32 -372 25z"/>
<path d="M10895 20473 c-381 -60 -677 -312 -779 -665 -88 -304 -37 -628 138
-872 121 -169 317 -305 527 -367 111 -32 350 -38 479 -11 193 40 367 138 506
285 116 123 190 257 236 427 29 110 32 356 5 462 -88 352 -334 612 -674 714
-77 23 -109 27 -248 29 -88 2 -173 1 -190 -2z"/>
<path d="M7145 20194 c-363 -64 -675 -284 -859 -609 -160 -280 -199 -663 -99
-979 139 -442 506 -766 962 -851 106 -19 322 -20 432 0 507 88 915 491 1015
1002 24 118 23 348 0 458 -57 262 -172 472 -358 650 -180 175 -402 287 -647
329 -116 20 -334 20 -446 0z"/>
<path d="M14480 19449 c-130 -11 -242 -53 -353 -133 -199 -141 -307 -357 -307
-611 0 -127 22 -223 74 -330 86 -174 225 -298 408 -362 61 -22 96 -27 215 -31
176 -5 256 10 386 75 74 37 108 63 178 132 141 141 207 286 216 481 14 303
-146 571 -423 709 -118 58 -250 82 -394 70z"/>
<path d="M18860 19059 c-401 -50 -736 -349 -830 -740 -79 -332 17 -670 262
-917 124 -125 287 -218 463 -263 126 -32 332 -33 458 -1 352 88 617 345 719
698 20 69 23 101 23 254 0 140 -4 189 -19 245 -131 484 -580 787 -1076 724z"/>
<path d="M12835 19033 c-316 -67 -543 -317 -587 -645 -36 -268 90 -545 314
-694 139 -92 289 -131 471 -121 190 10 339 76 472 211 138 140 202 282 212
476 13 232 -68 435 -232 588 -177 166 -418 235 -650 185z"/>
<path d="M15981 18820 c-249 -67 -432 -239 -518 -485 -25 -74 -27 -91 -27
-235 0 -144 2 -161 27 -235 40 -115 100 -210 182 -290 155 -152 346 -223 570
-211 271 14 505 168 623 410 85 174 94 401 24 590 -74 200 -258 375 -467 443
-112 36 -306 42 -414 13z"/>
<path d="M9669 18490 c-408 -51 -741 -341 -844 -736 -114 -436 111 -910 530
-1121 140 -71 327 -110 474 -100 489 35 877 412 932 904 18 160 -17 346 -93
498 -102 203 -290 384 -496 477 -142 64 -352 97 -503 78z"/>
<path d="M21927 17744 c-491 -76 -899 -465 -996 -949 -40 -204 -36 -394 13
-587 110 -431 463 -784 894 -894 344 -88 709 -20 1007 187 271 187 464 491
521 819 24 142 15 381 -20 512 -73 273 -238 519 -461 686 -88 66 -287 165
-385 192 -179 49 -395 62 -573 34z"/>
<path d="M11655 17730 c-95 -25 -138 -44 -217 -96 -146 -97 -266 -270 -303
-440 -24 -107 -17 -312 15 -404 112 -330 409 -530 753 -507 496 33 818 529
647 998 -79 217 -273 392 -496 449 -104 27 -299 27 -399 0z"/>
<path d="M17135 17393 c-89 -19 -212 -77 -293 -138 -115 -87 -206 -221 -254
-375 -33 -108 -33 -302 0 -410 79 -252 280 -448 532 -516 90 -24 282 -25 370
-1 264 71 463 271 530 532 27 106 27 273 0 379 -38 148 -128 293 -238 381 -78
62 -221 132 -310 150 -92 19 -245 18 -337 -2z"/>
<path d="M14746 17339 c-212 -35 -376 -175 -447 -379 -32 -95 -32 -238 0 -338
47 -145 149 -264 283 -332 99 -49 170 -64 283 -57 107 6 181 31 277 94 106 70
175 161 220 293 33 93 32 248 -1 343 -68 200 -243 347 -449 377 -76 11 -98 11
-166 -1z"/>
<path d="M6481 17195 c-507 -89 -917 -500 -1006 -1009 -19 -112 -19 -318 0
-429 90 -519 493 -922 1012 -1012 111 -19 317 -19 429 0 518 91 922 500 1009
1024 25 147 17 369 -18 503 -120 457 -447 785 -905 905 -82 21 -124 26 -267
29 -118 2 -195 -1 -254 -11z"/>
<path d="M13313 17105 c-181 -51 -331 -195 -386 -370 -16 -53 -21 -95 -21
-175 0 -80 5 -122 21 -175 52 -166 190 -308 349 -361 83 -27 275 -27 358 0
158 52 298 197 348 361 31 99 31 253 1 350 -51 164 -173 292 -338 355 -77 29
-253 38 -332 15z"/>
<path d="M19425 16810 c-325 -46 -600 -242 -746 -531 -137 -274 -135 -615 7
-889 241 -468 826 -661 1299 -431 288 141 477 391 531 705 21 116 14 296 -16
415 -76 309 -321 579 -620 683 -132 46 -327 67 -455 48z"/>
<path d="M15610 16236 c-112 -31 -227 -107 -292 -193 -237 -313 -94 -762 277
-872 104 -31 256 -26 356 11 124 46 244 151 301 262 115 224 77 458 -102 636
-121 122 -239 171 -406 169 -49 0 -109 -6 -134 -13z"/>
<path d="M11144 15992 c-268 -69 -479 -277 -550 -542 -24 -87 -24 -262 -1
-350 64 -246 254 -449 495 -531 88 -29 109 -32 217 -33 136 -1 208 14 320 68
199 95 350 280 401 491 25 104 23 269 -4 368 -69 245 -251 437 -487 513 -108
35 -286 42 -391 16z"/>
<path d="M9195 15970 c-435 -57 -775 -393 -845 -833 -17 -105 -8 -288 20 -392
75 -281 263 -508 525 -635 153 -75 239 -94 420 -94 123 -1 166 3 239 22 353
89 630 366 723 722 20 76 25 121 26 225 1 171 -27 302 -96 440 -189 381 -594
599 -1012 545z"/>
<path d="M14370 15949 c-149 -19 -293 -126 -366 -273 -38 -78 -39 -82 -39
-190 0 -100 3 -117 28 -171 59 -125 163 -223 285 -267 88 -32 211 -35 291 -8
201 67 321 235 321 445 0 143 -50 258 -152 350 -59 53 -156 102 -219 110 -24
4 -53 8 -64 9 -11 2 -49 -1 -85 -5z"/>
<path d="M17205 15693 c-272 -34 -503 -207 -606 -453 -61 -145 -75 -344 -34
-495 65 -242 261 -436 510 -506 103 -29 285 -31 390 -5 210 53 385 196 480
390 165 337 40 756 -286 959 -136 84 -316 128 -454 110z"/>
<path d="M12857 15635 c-169 -47 -319 -185 -379 -350 -26 -73 -35 -226 -19
-307 38 -183 186 -347 369 -410 94 -32 257 -32 357 -1 86 27 180 86 246 155
58 61 122 183 139 265 19 89 8 224 -24 303 -66 163 -223 301 -393 345 -70 18
-230 18 -296 0z"/>
<path d="M15300 14886 c-225 -66 -384 -244 -419 -471 -23 -152 34 -323 148
-449 50 -54 152 -119 234 -147 304 -106 638 79 712 393 66 281 -90 568 -360
664 -65 23 -251 29 -315 10z"/>
<path d="M21848 14779 c-631 -78 -1098 -603 -1098 -1235 0 -581 407 -1087 975
-1210 104 -23 266 -32 385 -23 515 41 949 407 1086 917 35 128 45 388 20 527
-69 398 -332 743 -697 914 -92 43 -226 85 -322 101 -95 15 -264 20 -349 9z"/>
<path d="M19088 14525 c-382 -72 -691 -362 -792 -745 -24 -88 -32 -280 -17
-376 42 -257 201 -500 426 -649 105 -70 195 -111 315 -142 132 -35 343 -37
473 -5 245 61 445 201 585 411 97 144 147 295 158 476 30 472 -278 897 -736
1016 -109 28 -302 35 -412 14z"/>
<path d="M13933 14520 c-275 -49 -463 -276 -463 -558 0 -248 146 -452 380
-533 96 -33 248 -32 346 3 182 64 312 208 360 398 23 91 15 253 -16 335 -80
210 -260 344 -482 359 -40 3 -96 1 -125 -4z"/>
<path d="M6877 14300 c-263 -30 -504 -144 -702 -333 -190 -180 -307 -389 -362
-651 -24 -113 -24 -361 0 -476 55 -256 167 -462 356 -651 189 -189 402 -302
661 -350 96 -18 309 -16 412 5 252 49 480 169 658 346 218 216 340 474 371
785 34 335 -91 691 -333 950 -165 177 -416 313 -660 360 -103 19 -298 27 -401
15z"/>
<path d="M11830 14260 c-234 -61 -434 -242 -513 -466 -125 -351 25 -734 353
-903 126 -65 175 -76 345 -76 138 1 156 3 230 29 194 67 338 192 430 373 47
94 66 170 72 294 7 136 -13 231 -72 354 -78 161 -189 271 -356 350 -41 19
-106 42 -144 50 -99 21 -253 18 -345 -5z"/>
<path d="M16561 13969 c-145 -26 -266 -87 -378 -193 -126 -119 -202 -270 -223
-445 -56 -460 358 -887 806 -831 308 38 561 256 646 557 26 93 31 275 9 363
-19 78 -92 225 -146 292 -83 105 -217 193 -360 238 -81 25 -266 35 -354 19z"/>
<path d="M9839 13664 c-196 -35 -362 -125 -509 -273 -100 -102 -166 -201 -214
-322 -97 -248 -83 -556 37 -794 104 -208 297 -387 500 -466 151 -58 187 -64
377 -63 162 0 182 2 264 28 255 78 468 252 587 479 67 129 95 223 109 370 48
496 -304 956 -797 1042 -104 18 -252 18 -354 -1z"/>
<path d="M13281 13110 c-351 -92 -590 -414 -568 -764 16 -255 184 -497 432
-624 138 -70 325 -91 475 -53 282 70 515 305 576 579 22 97 15 248 -16 347
-79 254 -285 451 -538 516 -101 26 -260 25 -361 -1z"/>
<path d="M15015 13086 c-298 -70 -515 -292 -571 -584 -74 -385 164 -759 546
-859 89 -23 272 -23 360 1 436 117 673 586 504 1000 -37 91 -98 178 -178 253
-143 135 -283 193 -481 199 -80 2 -140 -1 -180 -10z"/>
<path d="M17824 12720 c-644 -115 -1000 -806 -713 -1384 153 -308 443 -510
786 -549 459 -51 896 235 1036 679 109 347 18 725 -237 980 -120 119 -280 212
-441 255 -90 24 -340 35 -431 19z"/>
<path d="M11447 12135 c-356 -68 -648 -321 -755 -655 -36 -114 -46 -182 -45
-315 1 -104 6 -149 26 -225 92 -354 352 -615 707 -707 78 -21 119 -25 230 -25
187 -1 314 30 467 112 131 70 262 187 343 305 52 75 118 225 142 321 31 126
31 332 0 457 -89 358 -360 630 -714 718 -111 27 -297 34 -401 14z"/>
<path d="M20745 12139 c-264 -31 -524 -158 -715 -349 -469 -470 -478 -1242
-20 -1733 308 -330 779 -467 1210 -352 322 87 624 330 789 637 156 288 187
642 85 955 -89 272 -278 512 -526 666 -235 147 -532 211 -823 176z"/>
<path d="M8301 11690 c-347 -44 -681 -248 -872 -533 -153 -229 -213 -426 -213
-702 -1 -353 125 -648 378 -893 240 -231 524 -345 861 -345 345 0 630 117 871
357 189 189 299 396 348 655 23 122 21 347 -4 472 -98 482 -463 857 -939 965
-122 27 -314 38 -430 24z"/>
<path d="M15957 11530 c-133 -21 -293 -85 -403 -161 -26 -18 -80 -63 -120
-101 -313 -298 -391 -772 -189 -1155 56 -107 116 -184 209 -270 169 -156 373
-239 612 -250 305 -14 560 81 765 286 124 125 208 272 255 446 27 100 27 380
0 480 -47 174 -131 321 -255 446 -128 127 -285 218 -452 260 -96 23 -326 34
-422 19z"/>
<path d="M13795 11354 c-465 -45 -822 -378 -895 -837 -16 -97 -8 -289 16 -377
74 -279 271 -520 530 -649 153 -76 301 -107 472 -98 428 21 788 314 899 733
36 137 38 354 5 488 -24 96 -90 245 -142 321 -137 200 -363 350 -600 400 -71
15 -222 25 -285 19z"/>
<path d="M18756 10164 c-372 -67 -705 -314 -879 -651 -95 -185 -137 -360 -137
-578 0 -343 118 -634 355 -870 175 -176 380 -285 628 -336 132 -27 362 -29
489 -5 517 98 908 498 994 1015 24 149 16 370 -20 503 -58 217 -173 417 -331
573 -189 187 -415 305 -672 350 -107 19 -321 18 -427 -1z"/>
<path d="M10395 9855 c-270 -44 -511 -170 -699 -365 -230 -239 -346 -526 -346
-860 0 -344 119 -630 364 -876 240 -241 537 -364 876 -364 468 0 886 255 1099
670 95 186 135 357 135 575 -1 148 -10 215 -50 353 -106 364 -401 675 -764
807 -183 66 -430 90 -615 60z"/>
<path d="M16102 8950 c-441 -45 -850 -357 -1027 -785 -191 -460 -84 -981 274
-1335 242 -239 539 -360 886 -360 257 0 477 66 689 207 221 146 392 369 478
623 86 256 83 567 -8 822 -108 300 -341 562 -629 706 -193 96 -449 143 -663
122z"/>
<path d="M13075 8844 c-327 -58 -625 -254 -809 -532 -142 -214 -206 -427 -206
-687 0 -337 125 -641 359 -876 235 -234 540 -359 876 -359 477 0 895 259 1109
688 235 469 138 1051 -238 1426 -176 177 -411 297 -663 341 -107 19 -321 18
-428 -1z"/>
<path d="M2460 4651 c-69 -5 -168 -14 -220 -21 -1139 -146 -1984 -929 -2184
-2024 -75 -406 -58 -878 44 -1272 156 -603 510 -980 1115 -1187 270 -92 480
-127 820 -134 326 -7 534 9 1050 83 233 33 252 37 278 62 16 15 35 38 42 52
23 45 193 766 182 776 -3 3 -47 -2 -99 -11 -194 -33 -1045 -65 -1275 -46 -331
26 -567 98 -763 231 -360 245 -544 688 -491 1185 75 703 513 1270 1142 1479
204 68 286 80 549 80 255 1 342 -8 730 -70 118 -19 274 -44 345 -54 72 -11
145 -22 163 -25 l32 -6 0 431 c0 236 -1 430 -2 430 -2 0 -177 9 -390 20 -463
23 -896 31 -1068 21z"/>
<path d="M20230 4649 c-705 -56 -1275 -291 -1694 -698 -382 -372 -614 -848
-708 -1451 -19 -127 -22 -184 -23 -460 0 -332 6 -407 50 -628 77 -382 268
-724 521 -933 301 -250 661 -387 1149 -439 347 -37 903 -15 1305 51 313 52
395 133 459 451 22 109 61 365 61 400 l0 21 -327 -9 c-552 -15 -1065 -11
-1227 10 -307 39 -501 117 -686 276 -271 234 -418 628 -381 1022 65 684 433
1246 986 1503 240 112 488 164 780 165 270 0 424 -25 912 -150 150 -39 275
-70 278 -70 3 0 5 202 5 449 l0 449 -82 6 c-494 35 -1165 52 -1378 35z"/>
<path d="M6360 4624 c-714 -52 -1306 -298 -1749 -729 -362 -352 -593 -790
-700 -1330 -43 -218 -54 -355 -48 -599 6 -246 31 -407 97 -608 50 -155 160
-375 247 -498 286 -399 741 -678 1289 -789 408 -83 997 -77 1424 15 655 141
1188 487 1527 994 199 297 321 626 380 1025 22 150 25 633 5 760 -83 509 -292
941 -599 1235 -299 287 -677 442 -1233 506 -123 14 -532 26 -640 18z m271
-794 c673 -68 1049 -392 1153 -990 23 -131 31 -390 17 -525 -71 -659 -421
-1166 -957 -1387 -104 -43 -273 -89 -399 -110 -122 -20 -496 -16 -612 5 -193
36 -381 107 -500 188 -69 47 -198 174 -248 244 -145 204 -216 466 -217 800 -1
420 101 777 313 1095 86 129 292 335 418 419 313 208 669 297 1032 261z"/>
<path d="M15600 4510 c-202 -8 -222 -11 -293 -47 -75 -37 -125 -97 -206 -244
-41 -74 -214 -386 -386 -694 -172 -308 -572 -1030 -890 -1605 -566 -1024 -694
-1245 -717 -1238 -6 2 -16 11 -21 19 -5 9 81 696 237 1883 135 1028 246 1877
246 1887 0 18 -16 19 -439 19 l-439 0 -6 -32 c-3 -18 -111 -800 -241 -1737
-129 -938 -237 -1706 -239 -1708 -14 -14 -176 415 -511 1352 -213 594 -461
1282 -550 1528 -174 479 -200 533 -279 586 l-40 26 -690 0 -690 0 -322 -2165
c-178 -1191 -325 -2180 -328 -2198 l-5 -32 451 2 452 3 176 1220 c97 671 210
1449 250 1728 l74 508 30 -3 31 -3 605 -1734 605 -1734 1141 5 1140 4 48 24
c84 40 130 99 253 325 186 341 364 686 468 905 141 299 206 386 331 445 93 44
175 50 359 25 130 -18 222 -23 495 -26 184 -3 359 -9 388 -15 61 -12 113 -52
142 -109 11 -21 33 -93 50 -161 112 -444 320 -1198 349 -1264 10 -23 33 -58
51 -79 64 -73 42 -70 562 -74 l466 -4 -13 48 c-8 27 -145 535 -305 1129 -683
2532 -847 3125 -873 3153 -11 12 -46 34 -76 49 -52 25 -69 27 -246 34 -221 9
-340 8 -595 -1z m310 -1330 l167 -610 -490 0 -489 0 84 163 c47 89 190 366
318 614 128 249 236 451 238 448 3 -2 80 -279 172 -615z"/>
<path d="M24800 4510 c-138 -16 -247 -71 -324 -166 -24 -29 -92 -133 -152
-231 -164 -272 -751 -1173 -763 -1173 -3 0 -75 192 -160 428 -212 590 -346
946 -378 1004 -15 27 -45 66 -68 87 l-41 38 -169 6 c-234 10 -885 9 -885 -1 0
-4 63 -149 141 -322 640 -1427 873 -1962 900 -2067 46 -179 40 -254 -116
-1410 -41 -309 -75 -569 -75 -578 0 -13 57 -15 494 -15 l493 0 12 118 c6 64
22 239 36 387 14 149 37 360 51 470 14 110 36 297 50 415 44 380 85 531 193
713 153 258 340 516 734 1012 127 160 252 318 278 351 27 34 64 73 84 88 80
61 53 59 727 60 339 1 619 -2 622 -5 6 -6 -16 -146 -359 -2331 -107 -681 -195
-1245 -195 -1253 0 -13 61 -15 498 -15 l498 0 193 1368 c106 752 221 1565 255
1807 l62 440 619 5 620 5 17 120 c9 66 34 238 56 382 l38 262 -1921 0 c-1057
0 -1937 2 -1956 4 -19 3 -68 1 -109 -3z"/>
</g>
</svg>
