<?xml version="1.0" standalone="no"?>
<!DOCTYPE svg PUBLIC "-//W3C//DTD SVG 20010904//EN"
 "http://www.w3.org/TR/2001/REC-SVG-20010904/DTD/svg10.dtd">
<svg version="1.0" xmlns="http://www.w3.org/2000/svg"
 width="175.000000pt" height="300.000000pt" viewBox="0 0 175.000000 300.000000"
 preserveAspectRatio="xMidYMid meet">

<g transform="translate(0.000000,300.000000) scale(0.100000,-0.100000)"
fill="#000000" stroke="none">
<path d="M1420 2982 c-44 -17 -45 -18 -50 -69 l-5 -52 -49 30 -48 31 -60 -23
-60 -22 7 -154 c4 -85 4 -222 0 -304 l-7 -149 -37 -10 c-20 -5 -51 -13 -69
-16 l-32 -6 0 45 c0 43 2 46 35 57 20 6 49 23 65 37 l30 25 0 158 0 159 -76
46 -76 46 -87 -29 -86 -29 -3 -61 c-5 -96 -21 -73 -24 35 l-3 96 -124 77 -124
78 -48 -20 -49 -21 0 -112 0 -113 45 17 45 16 0 97 c0 54 2 98 4 98 3 0 21 -9
40 -21 l36 -21 0 -94 c0 -52 -3 -94 -7 -94 -5 1 -18 6 -31 13 -19 11 -30 9
-77 -13 l-55 -25 0 -107 c0 -60 2 -108 5 -108 2 0 23 7 45 16 l40 16 0 103 c0
57 4 106 8 109 9 5 72 -32 72 -43 0 -4 -5 -12 -11 -18 -6 -6 -9 -43 -7 -92 3
-83 1 -88 -32 -71 -13 7 -19 6 -23 -4 -3 -7 -26 -19 -51 -26 l-46 -13 0 -118
c0 -66 3 -119 8 -119 4 0 24 5 46 11 29 8 41 8 46 -1 4 -7 18 -17 31 -24 27
-13 28 -55 3 -69 -14 -8 -21 -87 -8 -87 4 0 219 52 479 116 l473 116 56 -33
c31 -19 56 -36 56 -40 0 -3 -25 -11 -55 -18 -51 -11 -58 -11 -89 8 -43 27 -45
27 -202 -11 -128 -30 -133 -33 -128 -55 4 -15 -19 -86 -71 -215 -42 -106 -81
-197 -86 -202 -27 -29 -13 23 55 194 78 196 90 244 59 238 -13 -2 -39 -61 -95
-208 -42 -113 -78 -208 -80 -212 -2 -4 -8 -4 -15 0 -9 6 8 60 63 201 41 107
72 196 70 199 -14 14 -58 -12 -73 -42 -15 -32 -20 -34 -127 -58 l-111 -25 -9
23 c-11 28 -26 32 -25 7 0 -10 17 -65 37 -123 l37 -105 38 -3 c20 -2 37 -8 37
-14 0 -6 -12 -8 -31 -4 -17 3 -40 6 -49 6 -14 0 -27 27 -60 125 -23 69 -46
125 -52 125 -6 0 -7 -7 -4 -16 3 -9 9 -27 12 -40 10 -38 -13 -28 -27 11 -12
33 -16 35 -44 29 -16 -3 -33 -8 -37 -11 -14 -8 -8 -80 7 -93 9 -8 12 -22 8
-42 -4 -22 -2 -33 10 -40 11 -6 17 -22 17 -48 l0 -38 -69 -21 c-38 -12 -76
-21 -85 -21 -9 0 -16 -4 -16 -8 0 -5 -21 -8 -47 -8 -45 1 -48 -1 -51 -26 -4
-36 -22 -37 -22 -2 0 22 -3 25 -22 20 -13 -3 -26 -6 -30 -6 -5 0 -8 -18 -8
-40 0 -22 -4 -40 -10 -40 -5 0 -10 18 -10 41 0 33 -3 40 -16 35 -9 -3 -22 -6
-30 -6 -10 0 -14 -15 -14 -59 0 -33 -5 -63 -10 -66 -6 -4 -10 24 -11 77 -1 50
-4 73 -8 58 -6 -21 -14 -25 -46 -28 -79 -5 -85 -9 -85 -51 0 -31 6 -44 30 -64
16 -14 35 -27 42 -30 8 -3 -2 -17 -27 -40 l-40 -35 48 5 c37 5 47 3 47 -9 0
-22 -35 -63 -75 -88 -28 -18 -35 -28 -35 -54 0 -25 6 -35 25 -44 36 -17 35
-17 35 37 0 40 6 56 35 95 20 25 40 46 45 46 5 0 27 -24 50 -53 l40 -54 0
-299 c0 -197 -4 -294 -10 -284 -6 9 -10 131 -10 293 l0 278 -37 49 -38 50 -18
-22 c-54 -68 -52 -59 -52 -278 0 -113 -1 -172 -3 -132 -3 77 -12 86 -39 41
-12 -20 -13 -32 -4 -67 7 -25 18 -42 26 -42 13 0 15 -31 15 -195 l0 -195 -24
-10 c-60 -22 -53 -100 10 -126 50 -21 142 -18 189 6 22 11 55 20 73 20 31 0
34 -2 28 -22 -19 -64 -18 -87 5 -127 l23 -41 68 0 68 0 -6 -44 c-6 -43 -5 -46
27 -65 24 -15 51 -21 91 -21 53 0 58 -2 64 -25 6 -25 8 -25 109 -25 59 0 107
-4 110 -10 3 -6 51 -10 107 -10 113 0 127 8 128 68 0 32 0 32 52 32 39 0 59 6
83 25 18 13 54 29 80 36 60 15 105 52 105 87 0 14 10 36 21 49 l22 22 -23 63
c-12 35 -25 69 -27 75 -4 10 13 13 66 13 l72 0 15 35 c23 57 20 76 -30 157
-27 42 -45 81 -42 86 3 5 37 7 76 4 38 -2 70 -1 71 4 0 5 2 29 4 53 3 41 0 49
-46 105 -37 43 -49 65 -45 80 3 12 6 27 6 34 0 8 20 12 65 12 l65 0 0 39 c0
22 2 46 5 53 4 9 -17 32 -55 61 -55 43 -60 50 -60 87 0 43 -3 41 85 58 l40 8
0 59 0 59 -62 25 c-62 24 -63 25 -63 63 0 39 1 40 60 65 l60 26 0 62 0 61 -70
34 c-38 19 -70 37 -70 40 0 3 23 28 50 55 49 48 51 52 48 100 l-3 50 -78 44
c-43 24 -75 47 -70 51 4 4 36 13 71 20 l62 13 0 51 c0 49 -2 53 -35 70 l-35
19 0 306 0 306 -67 35 c-37 19 -69 36 -72 37 -3 1 -26 -6 -51 -15z m115 -54
l45 -22 0 -283 c0 -156 -4 -283 -8 -283 -5 0 -17 6 -28 14 -11 9 -30 12 -46 9
l-28 -5 0 296 c0 185 4 296 10 296 5 0 30 -10 55 -22z m-877 -146 c2 -77 0
-92 -13 -92 -12 0 -15 16 -15 96 0 72 3 95 13 92 8 -3 13 -34 15 -96z m668 72
c43 -26 44 -27 44 -80 0 -30 -2 -54 -4 -54 -2 0 -24 36 -49 80 -25 44 -43 80
-41 80 3 0 25 -12 50 -26z m-618 -16 c13 -13 17 -158 4 -158 -22 0 -32 29 -32
97 0 73 5 84 28 61z m50 -108 c3 -74 1 -82 -13 -70 -20 16 -22 164 -2 158 8
-3 13 -32 15 -88z m360 -166 c2 -130 1 -138 -20 -161 -12 -13 -39 -28 -59 -35
-33 -9 -42 -8 -75 12 l-37 23 52 23 51 23 0 151 0 152 43 -25 42 -25 3 -138z
m-313 -171 l0 -208 -62 -17 -63 -16 0 259 0 260 63 -35 62 -35 0 -208z m123
200 c-3 -65 -6 -78 -20 -81 -16 -3 -18 5 -18 65 0 64 10 93 32 93 5 0 8 -35 6
-77z m407 -132 c37 -62 63 -116 58 -121 -4 -4 -36 -14 -70 -22 l-63 -16 0 141
c0 77 2 138 4 136 2 -2 34 -55 71 -118z m-761 -4 c15 -11 17 -29 17 -125 0
-62 0 -114 -1 -117 0 -3 -13 1 -30 10 l-30 16 0 114 c0 121 4 131 44 102z
m394 -118 c18 -11 22 -23 22 -61 0 -46 -1 -47 -37 -57 -21 -6 -41 -11 -45 -11
-5 0 -8 39 -8 86 l0 86 23 -14 c12 -8 32 -21 45 -29z m497 -166 c19 -9 35 -24
35 -33 0 -19 -88 -86 -98 -75 -4 3 -11 25 -17 48 -9 39 -8 43 15 59 14 9 26
17 27 17 1 1 18 -7 38 -16z m154 -108 c49 -29 61 -41 61 -61 l0 -25 -62 35
c-48 27 -64 41 -66 61 -2 14 -1 25 2 25 3 0 32 -16 65 -35z m-388 -170 c19
-78 38 -275 26 -275 -28 0 -194 66 -207 83 -18 21 -10 45 112 337 10 25 11 24
30 -20 11 -25 28 -81 39 -125z m380 94 c32 -18 59 -35 59 -38 0 -4 -20 -26
-44 -50 l-44 -43 -61 33 -60 33 42 47 c23 26 44 47 46 48 2 1 30 -13 62 -30z
m-661 14 c0 -4 -16 -49 -36 -101 l-36 -93 -42 3 c-41 3 -41 3 -63 68 -12 36
-22 70 -22 76 -1 5 38 20 87 31 101 24 112 25 112 16z m-280 -83 c0 -15 -7
-20 -25 -20 -18 0 -25 5 -25 20 0 15 7 20 25 20 18 0 25 -5 25 -20z m890 -90
c0 -6 -6 -10 -14 -10 -7 0 -34 -3 -60 -6 l-46 -7 0 47 0 46 60 -30 c33 -17 60
-35 60 -40z m-872 34 c3 -18 -2 -20 -36 -18 -48 2 -63 10 -55 30 4 11 17 14
47 12 33 -2 42 -7 44 -24z m57 -122 c-16 -17 -53 86 -39 109 5 9 14 -7 26 -46
9 -32 15 -61 13 -63z m-77 41 c3 -40 1 -43 -21 -43 -22 0 -24 4 -23 45 1 40 4
45 21 43 16 -2 21 -12 23 -45z m1058 -33 c2 0 4 -16 4 -36 0 -25 -4 -35 -12
-31 -125 52 -129 56 -112 101 5 13 14 12 61 -10 31 -13 57 -24 59 -24z m-726
-68 c174 -45 353 -108 330 -115 -12 -5 -994 -104 -1205 -123 l-60 -5 30 26
c90 78 361 222 470 250 102 25 251 14 435 -33z m703 -22 c5 -4 -16 -17 -46
-29 l-55 -22 -51 22 -52 22 48 27 47 27 51 -20 c27 -11 54 -23 58 -27z m-164
-51 c47 -20 51 -24 51 -55 l0 -34 -60 0 -60 0 0 55 c0 30 4 55 9 55 4 0 31
-10 60 -21z m-186 -148 l47 -79 0 -274 0 -273 55 -35 c71 -45 71 -60 0 -60
l-55 0 0 -99 c0 -81 -3 -100 -16 -105 -19 -7 -104 -8 -104 -1 0 5 27 50 38 65
2 3 17 -11 33 -30 l28 -35 1 416 0 417 -39 67 c-22 36 -41 69 -44 71 -5 5 -87
-137 -87 -150 0 -3 16 -6 35 -6 35 0 35 0 35 -45 0 -117 -49 -416 -71 -440 -7
-6 -9 79 -7 238 2 192 0 247 -9 247 -10 0 -13 -62 -13 -276 0 -181 3 -273 10
-269 7 4 10 -70 10 -214 0 -141 -4 -221 -10 -221 -6 0 -10 73 -10 198 0 109
-4 202 -9 208 -5 5 -34 87 -66 181 l-57 173 22 61 c11 33 23 80 27 104 5 40 8
43 43 49 36 6 41 11 85 93 43 79 60 102 75 103 3 0 27 -36 53 -79z m-413 -2
l0 -51 73 6 c39 4 98 9 130 12 56 6 71 -2 45 -24 -7 -5 -66 -13 -130 -17
l-117 -7 -12 -53 -12 -52 106 -304 c65 -187 103 -307 97 -313 -11 -11 -8 -19
-121 304 -49 140 -92 262 -95 270 -4 11 -10 8 -21 -14 -13 -25 -17 -27 -30
-13 -14 13 -12 22 12 83 22 54 28 86 29 147 1 73 2 77 23 77 21 0 23 -5 23
-51z m-270 5 c0 -25 -2 -26 -36 -21 -20 3 -43 12 -52 19 -13 11 -9 14 29 19
24 3 47 7 52 7 4 1 7 -10 7 -24z m1018 -1 c40 -14 42 -17 42 -55 0 -34 -3 -39
-17 -33 -10 4 -37 14 -60 22 -41 14 -43 17 -43 55 0 34 3 39 18 33 9 -4 36
-14 60 -22z m-1106 -13 c19 -12 51 -20 75 -20 70 0 109 -61 61 -94 -32 -23
-38 -20 -38 18 0 31 -3 34 -37 40 -21 3 -53 6 -71 6 -43 0 -72 16 -72 40 0 34
36 38 82 10z m-282 -40 l0 -40 58 1 c31 0 94 4 140 7 45 4 82 4 82 1 0 -18
-34 -28 -120 -34 -52 -3 -110 -8 -129 -11 l-34 -5 7 -102 c12 -172 55 -356
113 -486 l25 -56 22 44 c30 58 43 36 14 -24 -17 -34 -20 -50 -12 -62 19 -31
32 -24 57 31 14 31 31 56 38 56 7 0 8 -7 4 -17 -4 -10 -17 -44 -29 -76 l-21
-59 52 -48 c79 -73 151 -104 243 -104 90 -1 120 13 204 93 59 55 59 55 24 11
-75 -95 -204 -159 -296 -146 -207 28 -375 261 -453 625 -13 64 -22 153 -26
269 -6 171 -6 172 16 172 18 0 21 -6 21 -40z m980 5 c0 -8 -7 -15 -15 -15 -16
0 -20 12 -8 23 11 12 23 8 23 -8z m-610 -75 c0 -36 -2 -40 -25 -40 -22 0 -25
4 -25 40 0 36 3 40 25 40 23 0 25 -4 25 -40z m975 28 l40 -12 -39 -6 c-43 -8
-146 13 -111 22 35 10 69 8 110 -4z m-1035 -23 c0 -13 -5 -36 -12 -50 -16 -37
5 -54 129 -105 99 -41 171 -90 195 -133 7 -12 15 -58 19 -102 5 -57 17 -107
44 -175 48 -119 56 -192 27 -223 -11 -12 -20 -26 -20 -32 1 -5 -19 -20 -43
-33 -58 -31 -145 -26 -224 12 -76 38 -115 87 -115 146 0 25 5 52 10 60 7 11
10 -3 10 -46 0 -59 1 -63 41 -99 49 -44 106 -70 169 -78 30 -4 38 -3 25 3 -11
5 -31 9 -45 10 -38 1 -101 33 -143 73 -36 33 -38 38 -35 88 l3 54 43 7 c57 9
138 55 172 96 51 61 64 146 30 197 -26 40 -125 98 -221 130 -55 19 -86 35
-104 56 -34 42 -34 97 1 138 31 37 44 39 44 6z m935 -8 c49 -13 50 -14 53 -55
3 -40 2 -42 -25 -42 -15 0 -45 3 -65 6 -38 7 -38 7 -38 55 0 55 0 55 75 36z
m-505 -19 c0 -12 -7 -48 -16 -80 l-17 -58 78 -225 c51 -148 75 -229 68 -236
-6 -6 -39 75 -95 236 l-85 245 20 70 c20 67 47 95 47 48z m-518 -27 c-4 -11
-28 -38 -54 -61 -27 -23 -48 -47 -48 -53 0 -6 20 8 44 32 43 42 66 47 66 14 0
-9 18 -33 39 -53 l39 -37 -25 -52 c-20 -40 -31 -51 -49 -51 -20 0 -24 5 -24
31 0 17 5 40 11 52 10 21 10 21 -5 3 -9 -11 -16 -29 -16 -41 0 -12 -7 -30 -15
-41 -13 -18 -14 -17 -15 16 0 20 5 41 12 48 9 9 9 12 0 12 -6 0 -14 -12 -18
-27 -11 -53 -15 -63 -25 -63 -12 0 -12 36 2 63 10 21 10 21 -5 3 -9 -11 -16
-30 -16 -43 0 -13 -5 -32 -11 -42 -10 -15 -8 -22 10 -40 11 -11 21 -27 22 -33
0 -7 4 -4 9 7 6 13 9 15 9 5 1 -13 2 -13 11 0 9 13 12 13 24 -3 8 -10 18 -17
23 -15 4 2 9 -12 11 -30 2 -24 -2 -38 -15 -47 -17 -12 -16 -14 10 -20 15 -4
27 -11 27 -16 0 -12 -6 -11 -41 7 -42 21 -51 8 -14 -22 51 -41 92 -25 110 42
4 16 9 24 12 17 2 -6 -3 -28 -11 -48 -9 -20 -13 -41 -10 -46 7 -12 81 -11 123
1 68 19 130 79 145 140 5 18 1 15 -13 -11 -11 -20 -36 -50 -55 -67 -40 -35
-113 -59 -128 -44 -6 6 -17 8 -24 5 -12 -4 -11 0 1 23 8 15 33 37 57 48 26 13
44 29 47 41 5 28 20 45 41 45 14 0 17 -6 13 -22 -4 -22 -4 -22 10 1 14 24 38
39 65 40 7 1 12 -12 12 -34 0 -101 -123 -195 -255 -195 -173 0 -299 195 -239
371 12 37 17 77 15 126 -3 80 -3 80 76 82 38 1 42 -1 35 -18z m229 -26 c19
-10 51 -34 72 -54 53 -50 95 -131 45 -84 -27 24 -77 50 -167 87 -112 45 -130
83 -36 73 29 -3 68 -13 86 -22z m891 -72 c21 -14 38 -28 38 -30 0 -3 -21 -2
-47 2 -43 6 -123 42 -123 55 0 15 99 -5 132 -27z m-1530 -5 c8 -7 18 -27 21
-44 5 -26 1 -36 -24 -60 l-29 -28 0 72 c0 73 4 81 32 60z m1600 -88 c-2 -19
-5 -37 -7 -39 -2 -2 -29 0 -60 4 -54 6 -55 7 -55 39 0 18 2 35 4 37 3 2 31 2
63 -1 l58 -5 -3 -35z m-992 -13 c0 -8 -9 -22 -20 -32 -19 -18 -20 -17 -20 7 0
13 3 28 7 31 11 12 33 8 33 -6z m807 -22 c48 -17 52 -21 46 -44 -9 -39 -15
-42 -77 -35 -52 6 -57 9 -52 28 3 12 6 34 6 50 0 18 4 27 13 24 6 -3 35 -13
64 -23z m-708 -16 c18 -11 32 -21 30 -23 -2 -2 -23 -1 -46 2 -34 3 -43 8 -43
23 0 24 17 24 59 -2z m-263 -45 c-3 -9 -6 -22 -6 -30 0 -8 -9 -14 -20 -14 -16
0 -20 7 -20 30 0 26 4 30 26 30 20 0 25 -4 20 -16z m214 -19 c0 -22 -5 -35
-13 -35 -8 0 -13 13 -13 35 0 22 5 35 13 35 8 0 13 -13 13 -35z m44 19 c10
-27 7 -44 -9 -44 -10 0 -15 10 -15 30 0 32 14 40 24 14z m-367 -26 c-3 -7 -5
-2 -5 12 0 14 2 19 5 13 2 -7 2 -19 0 -25z m43 7 c0 -14 -4 -25 -10 -25 -5 0
-10 11 -10 25 0 14 5 25 10 25 6 0 10 -11 10 -25z m210 13 c0 -7 -8 -22 -17
-33 -14 -18 -15 -18 -9 -2 3 10 6 25 6 33 0 8 5 14 10 14 6 0 10 -6 10 -12z
m177 -3 c6 -18 5 -20 -23 -29 -17 -5 -22 -2 -26 19 -4 21 -2 25 19 25 13 0 26
-7 30 -15z m-452 -5 c3 -5 1 -10 -4 -10 -6 0 -11 5 -11 10 0 6 2 10 4 10 3 0
8 -4 11 -10z m1183 -73 c23 -23 42 -45 42 -49 0 -10 -102 3 -118 15 -7 6 -27
28 -44 49 l-30 39 53 -7 c45 -5 61 -13 97 -47z m-1438 7 c0 -10 -12 -14 -42
-14 l-43 1 35 18 c37 20 50 19 50 -5z m561 -27 c-8 -8 -11 -5 -11 9 0 27 14
41 18 19 2 -9 -1 -22 -7 -28z m-65 -4 c-11 -11 -19 6 -11 24 8 17 8 17 12 0 3
-10 2 -21 -1 -24z m-505 -13 c27 0 23 -16 -15 -64 -49 -59 -59 -90 -45 -135
17 -53 27 -61 75 -61 41 0 44 -2 44 -26 0 -14 4 -23 10 -19 6 4 10 -12 10 -39
0 -25 -4 -46 -10 -46 -5 0 -10 16 -10 36 0 30 -2 34 -14 25 -8 -7 -12 -21 -9
-31 5 -18 0 -20 -56 -20 l-61 0 0 196 0 197 31 -7 c17 -3 40 -6 50 -6z m1477
-40 c19 0 22 -5 22 -36 l0 -37 -61 6 c-33 3 -63 8 -66 10 -3 3 -2 20 2 37 7
31 9 32 44 26 20 -3 46 -6 59 -6z m-1418 -155 c0 -32 -2 -35 -30 -35 -16 0
-30 3 -30 7 0 7 51 63 57 63 2 0 3 -16 3 -35z m1325 -20 c56 -86 56 -85 -13
-85 l-60 0 -31 66 c-17 36 -31 68 -31 70 0 2 23 4 50 4 50 0 50 0 85 -55z
m-1291 0 c3 -8 1 -15 -4 -15 -6 0 -10 7 -10 15 0 8 2 15 4 15 2 0 6 -7 10 -15z
m6 -49 c0 -3 -4 -8 -10 -11 -5 -3 -10 -1 -10 4 0 6 5 11 10 11 6 0 10 -2 10
-4z m1329 -96 c-11 -29 -13 -30 -75 -30 -35 0 -64 2 -64 4 0 3 4 16 10 30 9
24 14 26 74 26 l65 0 -10 -30z m-1232 -52 c24 -38 11 -60 -34 -56 -31 3 -37 7
-40 30 -2 19 3 31 19 42 28 20 35 18 55 -16z m1023 -48 c0 -44 -4 -80 -8 -80
-21 0 -43 31 -65 93 l-25 67 49 0 49 0 0 -80z m55 18 c9 -34 19 -68 22 -75 4
-9 -5 -13 -26 -13 l-31 0 0 75 c0 41 4 75 9 75 4 0 16 -28 26 -62z m-1212 41
c42 -11 52 -27 43 -63 -9 -35 -57 -50 -153 -47 -38 1 -93 44 -93 72 0 41 115
63 203 38z m942 -156 c-26 -18 -32 -7 -9 18 12 14 20 17 23 8 2 -7 -4 -18 -14
-26z m212 4 c13 -14 -3 -16 -45 -6 -83 18 -174 -19 -156 -65 14 -36 142 -53
195 -26 33 18 39 29 32 65 l-6 30 27 -24 c64 -59 -5 -121 -134 -121 -74 0
-111 13 -144 49 -54 60 58 128 182 110 23 -3 45 -9 49 -12z m-883 -16 c21 -22
26 -34 20 -55 -6 -24 -10 -26 -60 -26 l-54 0 27 55 c15 30 30 55 33 55 4 0 19
-13 34 -29z m868 -12 c28 -15 21 -39 -17 -55 -41 -17 -71 -18 -114 -3 -48 17
-37 29 26 29 31 0 53 3 49 7 -3 4 -30 6 -58 4 -46 -2 -50 -1 -39 13 21 26 109
29 153 5z m98 17 c0 -11 -19 -15 -25 -6 -3 5 1 10 9 10 9 0 16 -2 16 -4z
m-406 -72 c11 -29 6 -34 -34 -34 -47 0 -51 13 -12 34 35 19 39 19 46 0z m-374
-96 c0 -63 -2 -65 -67 -52 -28 6 -29 7 -22 42 5 21 11 49 14 64 5 25 6 26 40
15 35 -10 35 -11 35 -69z m190 -12 c0 -30 3 -61 6 -70 5 -14 -3 -16 -54 -16
l-60 0 9 38 c5 20 9 52 9 70 0 31 1 32 45 32 l45 0 0 -54z m223 12 c19 -36 25
-87 13 -106 -4 -7 -31 -12 -69 -12 l-62 0 3 75 4 75 47 0 c42 0 48 -3 64 -32z
m166 6 c13 -11 -18 -24 -60 -24 -48 0 -49 1 -31 19 13 15 26 18 52 14 19 -3
37 -7 39 -9z"/>
<path d="M630 1714 c-56 -11 -159 -49 -235 -87 -90 -45 -268 -157 -261 -164 3
-3 176 12 385 33 209 21 376 41 371 44 -13 8 -31 62 -26 77 10 25 34 13 49
-24 11 -28 12 -40 3 -46 -6 -5 16 -6 49 -3 240 21 234 20 181 26 -44 4 -51 8
-57 33 -9 33 -5 33 84 5 58 -19 65 -24 46 -29 -18 -5 -12 -7 20 -8 62 -1 44
11 -69 47 -232 74 -449 113 -540 96z m40 -66 c-1 -29 -7 -64 -14 -77 -13 -23
-14 -23 -23 -5 -6 10 -8 45 -6 77 5 47 9 57 24 57 16 0 19 -8 19 -52z m57 20
c-21 -50 -76 -154 -77 -145 0 4 12 36 26 70 15 34 30 72 35 85 5 12 13 22 19
22 6 0 5 -12 -3 -32z m102 19 c29 -15 38 -35 18 -43 -11 -4 -73 29 -96 52 -10
10 56 3 78 -9z m-219 -9 c0 -7 3 -24 6 -38 6 -24 5 -23 -15 5 -25 36 -26 45
-6 45 8 0 15 -6 15 -12z m-4 -74 c19 -42 32 -79 29 -82 -4 -5 -75 138 -75 152
0 20 16 -4 46 -70z m324 72 c0 -9 -242 -158 -247 -152 -3 2 28 26 68 51 41 26
94 60 119 76 43 27 60 34 60 25z m-352 -71 c18 -36 32 -71 32 -78 0 -8 -16
-13 -42 -13 -25 -1 -35 2 -25 5 13 5 -6 16 -70 41 -96 37 -99 38 -91 45 2 3
51 -13 107 -35 107 -42 140 -51 81 -22 -33 16 -35 21 -38 70 -2 28 1 52 5 52
5 0 23 -29 41 -65z m441 31 c21 -56 22 -76 3 -76 -12 0 -22 13 -30 43 -7 23
-15 47 -18 54 -3 7 2 10 16 6 12 -3 25 -15 29 -27z m-579 -21 c0 -8 -4 -15
-10 -15 -5 0 -10 7 -10 15 0 8 5 15 10 15 6 0 10 -7 10 -15z m-100 -80 c0 -25
-4 -45 -10 -45 -5 0 -10 20 -10 45 0 25 5 45 10 45 6 0 10 -20 10 -45z m100
-6 c0 -16 -4 -29 -10 -29 -5 0 -10 16 -10 36 0 21 4 33 10 29 6 -3 10 -19 10
-36z m-180 -19 c0 -16 -4 -30 -10 -30 -11 0 -14 43 -3 53 11 12 13 8 13 -23z
m-80 -30 c0 -5 -5 -10 -11 -10 -5 0 -7 5 -4 10 3 6 8 10 11 10 2 0 4 -4 4 -10z"/>
<path d="M956 515 c-11 -8 -29 -16 -40 -16 -16 -1 -17 -2 -4 -6 16 -4 78 22
78 32 0 9 -15 4 -34 -10z"/>
<path d="M679 821 c-13 -11 -21 -22 -18 -25 3 -3 16 5 29 19 28 30 22 33 -11
6z"/>
<path d="M118 473 c12 -2 30 -2 40 0 9 3 -1 5 -23 4 -22 0 -30 -2 -17 -4z"/>
<path d="M53 454 c-3 -8 2 -23 11 -32 23 -24 139 -24 162 0 14 14 15 20 4 32
-7 9 -20 16 -28 16 -13 0 -12 -3 4 -15 16 -13 17 -16 4 -25 -18 -11 -100 -13
-127 -2 -13 5 -4 9 32 13 l50 6 -50 2 c-36 1 -46 4 -35 11 13 8 12 10 -3 10
-10 0 -20 -7 -24 -16z"/>
<path d="M373 2903 l-33 -17 0 -103 c0 -57 3 -103 7 -103 4 0 22 5 40 12 l33
12 0 108 c0 59 -3 108 -7 107 -5 0 -23 -8 -40 -16z"/>
<path d="M283 2860 c-22 -9 -23 -15 -23 -110 0 -55 3 -100 8 -100 4 0 17 3 30
6 21 6 22 11 22 110 0 57 -3 104 -7 103 -5 0 -18 -4 -30 -9z"/>
<path d="M208 2824 c-28 -14 -28 -16 -28 -110 l0 -96 27 7 c16 4 29 8 31 10 1
1 1 48 0 103 l-3 100 -27 -14z"/>
<path d="M380 2666 l-35 -13 -3 -106 c-1 -59 1 -107 6 -107 5 0 23 5 41 11
l31 11 0 109 c0 60 -1 109 -2 108 -2 0 -19 -6 -38 -13z"/>
<path d="M283 2630 c-22 -9 -23 -15 -23 -109 0 -55 3 -102 8 -104 4 -3 17 -1
30 4 21 8 22 14 22 114 0 58 -3 105 -7 104 -5 0 -18 -4 -30 -9z"/>
<path d="M203 2600 c-22 -9 -23 -15 -23 -115 l0 -105 31 12 31 13 1 103 c2
105 1 108 -40 92z"/>
<path d="M380 2425 l-35 -12 -3 -113 -3 -113 37 6 c20 3 38 8 41 10 2 2 2 56
1 119 l-3 115 -35 -12z"/>
<path d="M278 2389 c-15 -8 -18 -26 -18 -114 0 -109 3 -115 44 -99 13 5 16 25
16 115 0 113 -3 121 -42 98z"/>
<path d="M208 2368 l-28 -10 0 -104 c0 -92 2 -104 18 -104 39 0 43 13 40 122
l-3 105 -27 -9z"/>
<path d="M483 2196 l-43 -9 0 -110 0 -110 42 7 c23 4 44 8 45 10 2 2 2 52 1
112 l-3 109 -42 -9z"/>
<path d="M373 2169 l-33 -10 0 -106 0 -105 31 6 c17 3 35 6 40 6 5 0 9 50 9
110 0 61 -3 110 -7 109 -5 0 -23 -5 -40 -10z"/>
<path d="M136 2108 c-17 -40 -16 -42 3 -62 l21 -20 0 62 c0 34 -2 62 -4 62 -2
0 -11 -19 -20 -42z"/>
<path d="M273 2143 c-9 -3 -13 -34 -13 -104 l0 -99 30 0 30 0 0 105 c0 110 -3
116 -47 98z"/>
<path d="M208 2128 l-28 -10 0 -100 0 -100 27 7 c16 4 29 7 30 9 4 3 6 197 2
200 -2 2 -16 -1 -31 -6z"/>
<path d="M480 1951 l-35 -6 -3 -114 -3 -114 23 7 c13 3 33 6 46 6 22 0 22 2
22 115 0 63 -3 114 -7 114 -5 -1 -24 -4 -43 -8z"/>
<path d="M368 1933 l-28 -4 0 -110 c0 -109 0 -109 24 -109 54 0 56 4 56 121 0
81 -3 109 -12 108 -7 -1 -25 -4 -40 -6z"/>
<path d="M273 1913 c-9 -3 -13 -35 -13 -109 l0 -104 30 0 30 0 0 110 c0 98 -2
110 -17 109 -10 0 -24 -3 -30 -6z"/>
<path d="M208 1902 l-28 -3 0 -110 0 -109 28 6 c15 4 28 8 30 9 1 1 1 49 0
106 l-3 104 -27 -3z"/>
<path d="M70 1861 c-10 -37 -9 -39 36 -85 26 -25 48 -46 50 -46 2 0 4 34 4 75
0 72 -1 76 -26 85 -42 16 -53 12 -64 -29z"/>
</g>
</svg>
