<?xml version="1.0" standalone="no"?>
<!DOCTYPE svg PUBLIC "-//W3C//DTD SVG 20010904//EN"
 "http://www.w3.org/TR/2001/REC-SVG-20010904/DTD/svg10.dtd">
<svg version="1.0" xmlns="http://www.w3.org/2000/svg"
 width="683.000000pt" height="768.000000pt" viewBox="0 0 683.000000 768.000000"
 preserveAspectRatio="xMidYMid meet">

<g transform="translate(0.000000,768.000000) scale(0.100000,-0.100000)"
fill="#000000" stroke="none">
<path d="M3000 7654 c-691 -31 -1122 -75 -1675 -169 -563 -96 -1007 -208
-1116 -279 -69 -46 -99 -159 -64 -243 8 -19 38 -72 65 -117 41 -67 54 -100 73
-188 26 -117 42 -149 90 -178 70 -43 177 -37 527 32 198 38 386 55 406 36 21
-21 -96 -93 -201 -124 -72 -21 -202 -23 -453 -6 -199 14 -276 6 -361 -35 -68
-33 -127 -91 -140 -139 -11 -41 11 -260 28 -277 23 -23 117 48 145 108 13 27
15 50 10 108 -5 58 -4 75 7 79 35 13 279 -39 279 -60 0 -4 -19 -20 -43 -36
-142 -98 -177 -137 -177 -194 0 -45 25 -63 167 -116 124 -47 410 -191 643
-324 173 -99 266 -132 285 -102 11 18 -10 35 -171 137 -183 115 -238 162 -293
244 -73 109 -89 211 -40 260 38 38 159 17 159 -29 0 -9 -18 -35 -41 -58 l-41
-42 20 -45 c26 -58 152 -186 252 -256 127 -89 266 -151 339 -151 30 0 43 8 88
57 29 31 52 61 50 67 -2 5 -34 20 -73 33 -91 30 -281 126 -329 165 -45 37 -74
98 -75 152 0 34 6 45 49 85 59 56 74 83 66 120 -5 25 -1 32 45 65 73 52 139
115 156 147 35 69 4 177 -85 297 -96 129 -96 129 -73 141 47 25 475 87 838
121 635 58 1627 52 2274 -16 314 -33 745 -98 756 -115 3 -5 -22 -53 -55 -107
-74 -120 -98 -175 -111 -255 -20 -124 17 -176 174 -247 l96 -44 0 -67 c0 -65
2 -70 40 -114 22 -25 40 -53 40 -62 0 -28 -60 -112 -113 -158 -28 -24 -88 -65
-134 -91 -91 -51 -101 -69 -56 -104 36 -28 73 -22 189 35 72 35 104 58 152
109 66 71 142 190 142 222 0 13 -14 30 -37 45 -51 32 -69 70 -51 106 19 39 59
49 105 26 170 -84 49 -329 -256 -518 -63 -38 -119 -78 -125 -87 -8 -14 -5 -23
19 -48 34 -35 50 -38 65 -10 6 12 21 20 35 20 14 0 29 8 35 20 9 17 17 20 45
14 33 -6 34 -5 32 22 -2 26 1 29 27 29 21 1 31 7 37 23 7 18 14 21 34 16 23
-6 25 -3 25 25 0 34 11 38 55 21 25 -9 25 -9 23 33 l-3 42 39 -3 c32 -3 37 0
32 12 -20 51 -22 49 19 32 47 -20 54 -14 32 23 -9 16 -17 34 -17 40 0 16 36
13 71 -5 41 -21 47 -11 15 26 -42 50 -36 62 25 44 70 -21 79 -14 30 25 -70 56
-50 68 43 25 91 -41 86 -18 -10 52 -46 34 -25 35 50 3 120 -51 142 -35 41 31
-36 24 -63 45 -60 48 3 3 41 -12 85 -32 115 -55 134 -33 29 34 -54 35 -62 50
-25 50 58 0 156 -105 156 -167 0 -49 -36 -81 -198 -173 -73 -41 -165 -103
-205 -138 -134 -118 -236 -177 -385 -226 -45 -15 -89 -34 -97 -42 -19 -20 -5
-58 24 -62 31 -5 167 31 253 67 74 31 106 49 363 200 228 135 301 169 398 190
98 20 133 44 143 97 5 26 0 44 -22 81 -33 57 -169 195 -237 242 -44 30 -47 35
-33 49 11 11 44 17 125 20 l111 5 10 -27 c5 -15 10 -47 10 -71 0 -68 18 -138
45 -170 19 -25 27 -28 41 -19 25 15 93 180 94 225 0 46 -50 123 -105 161 -85
59 -128 63 -576 60 -264 -2 -421 0 -446 7 -51 14 -130 67 -139 93 -11 35 13
40 171 34 164 -6 285 -22 502 -67 163 -33 201 -35 266 -13 77 26 102 58 117
144 14 84 21 100 90 206 54 82 70 126 70 190 0 94 -37 133 -180 191 -429 176
-1457 380 -2205 438 -187 15 -1150 28 -1355 19z m1095 -44 c386 -21 771 -64
1200 -136 323 -54 710 -146 1051 -248 272 -82 330 -115 341 -193 7 -56 -9
-105 -77 -223 -38 -67 -64 -126 -71 -163 -7 -32 -15 -60 -19 -62 -4 -3 -97 20
-206 51 -438 122 -799 197 -1311 274 -569 85 -739 94 -1678 95 -691 0 -741 -1
-945 -23 -509 -54 -817 -98 -1150 -167 -448 -92 -650 -153 -803 -243 -38 -22
-62 -31 -68 -25 -6 6 -16 50 -24 99 -23 138 -24 141 -76 210 -27 36 -57 80
-66 97 -23 45 -23 145 0 180 33 51 171 105 412 162 201 48 738 153 910 179
368 55 1042 121 1375 135 277 12 989 12 1205 1z m-2635 -867 c96 -108 176
-243 143 -243 -4 0 -59 21 -123 48 l-115 47 -150 -1 c-131 0 -175 -5 -345 -38
-208 -40 -349 -54 -390 -38 -25 9 -24 10 24 40 26 17 87 45 135 62 126 46 670
177 743 179 20 1 39 -13 78 -56z m4175 22 c263 -49 766 -185 812 -221 17 -14
17 -15 -2 -30 -25 -19 -113 -14 -255 15 -172 35 -303 51 -470 58 -197 7 -248
-3 -377 -73 -46 -26 -87 -43 -91 -40 -3 4 2 30 12 58 43 123 158 258 218 258
9 0 78 -11 153 -25z m-4097 -295 c59 -30 82 -46 82 -60 0 -26 -87 -101 -169
-144 l-71 -37 -135 15 c-162 19 -242 20 -401 4 -120 -12 -123 -11 -210 15
-108 33 -230 57 -290 57 -54 0 -57 14 -7 32 29 10 125 13 403 13 403 0 374 -4
521 70 40 20 86 47 103 61 39 31 64 27 174 -26z m3935 19 c23 -31 87 -75 147
-100 54 -22 62 -22 471 -20 478 2 531 -2 588 -54 20 -19 33 -37 29 -40 -4 -4
-44 -2 -89 5 -95 15 -203 9 -304 -17 -63 -17 -79 -17 -160 -5 -49 7 -175 13
-280 14 -184 1 -193 0 -265 -27 -104 -38 -121 -40 -182 -20 -102 34 -169 80
-181 126 -7 27 30 68 105 118 67 46 100 51 121 20z m-5194 -260 c16 -73 13
-110 -9 -146 -35 -59 -60 -39 -75 59 -9 57 0 99 27 133 26 34 43 20 57 -46z
m6442 -30 c36 -25 36 -41 3 -107 -28 -57 -50 -66 -60 -26 -7 28 0 127 11 144
9 14 13 13 46 -11z"/>
<path d="M2801 7516 c-23 -24 -23 -29 -19 -183 5 -182 15 -216 64 -221 21 -2
36 4 50 19 17 19 19 36 18 148 -1 155 -10 217 -35 242 -26 26 -51 24 -78 -5z
m72 -176 c10 -154 3 -207 -26 -197 -16 5 -24 66 -28 213 -3 93 0 125 10 138
25 30 34 1 44 -154z"/>
<path d="M2957 7533 c-9 -8 -9 -236 -1 -336 5 -55 11 -77 20 -77 10 0 14 15
15 53 1 68 13 145 20 132 4 -5 19 -47 33 -92 18 -52 33 -83 42 -83 11 0 14 27
13 153 -1 170 -8 238 -26 245 -9 2 -13 -10 -14 -40 -1 -23 -4 -56 -8 -73 -6
-28 -8 -27 -30 35 -30 83 -45 103 -64 83z"/>
<path d="M3176 7522 c-9 -27 -34 -218 -42 -316 -5 -70 -4 -88 6 -84 7 2 20 24
29 48 23 63 45 59 71 -12 14 -40 30 -34 30 10 0 58 -49 344 -61 359 -15 18
-27 16 -33 -5z m34 -218 c0 -19 -4 -34 -10 -34 -5 0 -10 18 -10 41 0 24 4 38
10 34 6 -3 10 -22 10 -41z"/>
<path d="M3307 7533 c-4 -3 -7 -95 -7 -204 0 -185 1 -199 19 -209 20 -10 81
-3 81 10 0 5 -13 13 -30 19 l-30 10 0 108 c0 131 -10 273 -20 273 -4 0 -10 -3
-13 -7z"/>
<path d="M2704 7516 c-8 -20 2 -306 12 -369 9 -52 28 -41 32 19 5 67 -16 333
-27 353 -9 14 -10 14 -17 -3z"/>
<path d="M3665 7518 c-20 -55 -64 -398 -51 -398 4 0 15 20 26 45 23 54 56 62
66 18 11 -53 15 -63 25 -63 5 0 9 30 9 68 0 72 -26 318 -36 333 -8 13 -34 11
-39 -3z m25 -212 c0 -19 -4 -38 -10 -41 -6 -4 -10 10 -10 34 0 23 5 41 10 41
6 0 10 -15 10 -34z"/>
<path d="M3797 7523 c-13 -20 -26 -332 -15 -369 5 -19 18 -39 29 -45 27 -14
66 -4 79 21 22 42 40 383 21 395 -19 11 -24 -20 -36 -196 -6 -98 -14 -181 -18
-185 -3 -4 -13 -4 -22 -1 -13 5 -15 33 -16 174 -1 167 -8 229 -22 206z"/>
<path d="M3981 7521 c-12 -8 -13 -12 -1 -26 10 -12 13 -59 11 -208 -2 -154 0
-190 10 -180 8 8 17 77 26 190 12 162 15 179 34 194 12 9 18 19 13 22 -19 12
-80 17 -93 8z"/>
<path d="M2555 7500 c-16 -18 -17 -35 -12 -167 7 -201 27 -255 90 -239 30 7
51 60 45 111 -5 51 -32 38 -38 -19 -6 -55 -25 -71 -39 -33 -13 33 -32 273 -25
303 9 35 26 25 44 -24 22 -64 49 -47 36 23 -12 63 -64 86 -101 45z"/>
<path d="M4132 7495 c-24 -30 -33 -100 -35 -256 -2 -125 7 -149 58 -149 53 0
65 34 78 217 10 147 10 155 -10 181 -28 37 -65 40 -91 7z m58 -35 c13 -25 -4
-306 -21 -326 -31 -38 -42 27 -29 187 9 128 16 159 31 159 4 0 13 -9 19 -20z"/>
<path d="M2410 7496 c-9 -12 -13 -69 -14 -211 -1 -196 8 -242 29 -153 15 59
41 63 62 9 16 -42 43 -56 43 -23 0 31 -87 373 -97 383 -6 6 -14 4 -23 -5z m45
-216 c8 -35 -3 -60 -16 -39 -12 19 -11 69 0 69 5 0 12 -13 16 -30z"/>
<path d="M4303 7502 c-7 -4 -18 -72 -27 -172 -20 -206 -20 -240 -2 -240 16 0
22 23 31 115 11 106 17 105 42 -5 22 -100 35 -131 49 -117 8 8 21 126 30 280
6 109 5 127 -8 127 -11 0 -19 -21 -27 -76 -7 -42 -14 -74 -16 -72 -1 2 -12 36
-24 77 -22 81 -30 94 -48 83z"/>
<path d="M2287 7484 c-4 -4 -4 -40 0 -80 3 -41 3 -74 0 -74 -4 0 -22 31 -42
69 -61 122 -74 104 -56 -78 15 -159 32 -243 49 -249 11 -3 13 15 8 99 l-6 104
47 -94 c27 -52 53 -93 58 -92 13 2 7 106 -15 259 -17 117 -28 151 -43 136z"/>
<path d="M4496 7468 c-20 -32 -33 -87 -47 -209 -13 -119 -7 -174 21 -189 26
-14 65 -13 78 3 22 26 41 129 48 251 6 117 6 124 -15 145 -28 28 -67 27 -85
-1z m62 -61 c3 -37 -23 -263 -34 -291 -3 -9 -12 -16 -20 -16 -10 0 -14 15 -14
61 0 79 20 249 32 272 14 28 33 15 36 -26z"/>
<path d="M4656 7453 c-11 -27 -47 -332 -44 -366 6 -59 23 -29 44 75 l21 103 7
-70 c11 -112 17 -145 26 -145 5 0 22 39 38 88 l30 87 1 -92 c1 -99 14 -127 30
-66 11 44 41 295 41 348 0 34 -2 36 -27 33 -24 -3 -31 -11 -51 -68 -35 -100
-34 -98 -42 -70 -5 14 -8 44 -9 67 -1 58 -16 93 -40 93 -10 0 -22 -7 -25 -17z"/>
<path d="M1842 7423 c-10 -19 7 -199 31 -330 12 -66 13 -68 44 -71 46 -5 83
34 83 85 -1 112 -35 288 -61 314 -25 25 -85 26 -97 2z m72 -35 c32 -51 61
-308 37 -323 -7 -4 -17 -3 -22 2 -25 25 -63 343 -41 343 6 0 18 -10 26 -22z"/>
<path d="M4966 7418 c-20 -31 -106 -322 -106 -360 0 -25 3 -28 14 -19 8 6 19
25 26 42 10 22 18 29 34 27 16 -2 22 -12 26 -42 6 -50 27 -59 34 -14 3 18 8
108 11 199 5 139 3 168 -9 178 -12 10 -17 8 -30 -11z m4 -195 c0 -6 -5 -24
-10 -39 -8 -20 -14 -24 -22 -16 -8 8 -8 22 1 53 10 31 15 39 22 28 5 -8 9 -19
9 -26z"/>
<path d="M1717 7414 c-4 -4 -7 -99 -7 -211 0 -158 3 -204 12 -201 7 3 16 23
21 46 7 35 12 42 31 42 17 0 27 -9 36 -30 7 -16 18 -35 26 -41 11 -9 14 -7 14
12 0 48 -93 354 -114 377 -7 7 -15 9 -19 6z m53 -236 c0 -16 -4 -28 -10 -28
-5 0 -10 19 -10 43 0 31 3 38 10 27 5 -8 10 -27 10 -42z"/>
<path d="M1507 7383 c-12 -11 -8 -65 18 -223 34 -206 29 -193 78 -187 61 8 70
26 64 127 -7 104 -33 235 -54 266 -12 19 -24 24 -57 24 -24 0 -46 -3 -49 -7z
m80 -55 c16 -33 45 -227 41 -275 -2 -26 -8 -38 -18 -38 -19 0 -47 129 -56 259
-6 74 -5 88 7 84 8 -2 20 -16 26 -30z"/>
<path d="M5271 7376 c-12 -15 -55 -225 -67 -331 -7 -59 4 -85 37 -85 28 0 64
19 78 42 19 30 51 209 51 283 0 56 -3 66 -22 79 -38 24 -64 28 -77 12z m57
-38 c18 -18 15 -59 -13 -192 -25 -121 -36 -146 -63 -146 -21 0 -8 96 18 132
17 22 19 37 14 86 -4 36 -2 73 6 96 12 39 19 43 38 24z"/>
<path d="M1420 7338 c0 -34 50 -327 61 -354 12 -33 29 -21 29 19 0 31 -45 304
-56 340 -8 25 -34 21 -34 -5z"/>
<path d="M1291 7337 c-36 -44 -20 -109 48 -199 48 -65 74 -122 66 -149 -10
-29 -31 -23 -55 16 -12 19 -26 35 -31 35 -18 0 -8 -59 14 -86 19 -22 28 -25
55 -19 41 9 55 36 50 96 -4 40 -15 62 -62 124 -40 52 -59 87 -63 114 -6 40 12
66 28 40 32 -56 58 -64 45 -15 -12 50 -68 75 -95 43z"/>
<path d="M1104 7305 c-6 -15 35 -252 60 -352 7 -26 18 -49 25 -51 11 -4 13 12
9 77 -3 44 -2 81 1 81 3 0 20 -32 38 -70 48 -106 76 -86 32 22 -15 38 -22 78
-23 138 -1 62 -7 96 -21 125 -19 37 -23 40 -68 43 -36 2 -49 -1 -53 -13z m84
-42 c26 -49 21 -136 -7 -119 -13 8 -31 71 -31 109 0 31 24 37 38 10z"/>
<path d="M5621 7301 c-10 -18 -53 -237 -66 -338 -6 -43 -4 -53 7 -53 11 0 20
26 33 88 26 126 34 131 35 22 1 -52 5 -104 9 -115 7 -18 9 -18 23 10 8 17 25
58 38 93 12 34 25 62 27 62 3 0 1 -45 -2 -100 -14 -185 22 -105 60 133 14 92
23 172 20 177 -4 6 -15 10 -26 10 -19 0 -30 -18 -82 -140 -9 -22 -12 -13 -20
60 -11 104 -32 137 -56 91z"/>
<path d="M978 7289 c-10 -5 -18 -18 -18 -28 0 -26 68 -359 75 -371 9 -15 69
-12 91 5 18 14 18 14 -6 15 -40 1 -50 13 -64 81 -13 59 -12 65 5 85 25 27 24
33 -5 44 -17 6 -28 21 -35 47 -18 64 -14 92 14 105 14 6 25 15 25 20 0 11 -61
10 -82 -3z"/>
<path d="M894 7257 c-4 -11 -4 -57 -1 -103 3 -46 3 -84 -2 -84 -4 0 -25 37
-47 82 -37 78 -64 109 -64 73 0 -41 142 -375 159 -375 16 0 14 124 -4 269 -17
132 -28 171 -41 138z"/>
<path d="M5876 7261 c-10 -16 -76 -295 -82 -347 l-6 -52 36 -12 c20 -6 45 -9
54 -5 15 6 13 10 -12 30 -27 22 -28 25 -21 80 7 58 31 95 60 95 22 0 18 17 -6
30 -17 10 -19 17 -13 58 9 65 28 92 64 92 37 0 39 13 5 28 -31 14 -72 16 -79
3z"/>
<path d="M6016 7228 c-3 -7 -7 -57 -9 -111 -5 -92 -8 -101 -51 -181 -25 -46
-46 -89 -46 -95 0 -25 31 -8 56 29 30 46 44 51 44 16 0 -33 17 -76 30 -76 6 0
10 38 10 100 0 95 2 104 40 186 43 93 52 137 24 113 -8 -7 -22 -25 -30 -41
-19 -36 -30 -30 -38 21 -6 41 -23 62 -30 39z"/>
<path d="M716 7211 c-7 -10 51 -240 82 -330 25 -74 47 -82 38 -14 -6 50 -67
274 -87 326 -12 28 -23 34 -33 18z"/>
<path d="M640 7182 c0 -12 5 -44 11 -72 6 -28 9 -53 7 -56 -3 -2 -26 23 -51
56 -26 33 -51 60 -57 60 -17 0 -11 -62 15 -155 49 -172 76 -245 91 -245 18 0
18 7 -6 102 -12 44 -19 85 -18 90 2 6 30 -29 62 -77 43 -65 61 -84 69 -76 13
13 -4 86 -59 262 -33 103 -64 157 -64 111z"/>
<path d="M6182 7188 c-14 -18 -92 -304 -95 -352 -1 -22 3 -41 9 -43 20 -7 123
382 106 399 -5 5 -13 4 -20 -4z"/>
<path d="M6282 7163 c-7 -3 -21 -21 -31 -42 -20 -38 -75 -218 -86 -282 -17
-93 73 -122 115 -39 35 68 18 114 -18 49 -30 -55 -40 -65 -51 -54 -13 13 6
100 50 232 35 107 59 129 59 53 0 -27 4 -51 9 -54 29 -18 49 95 22 127 -13 17
-43 21 -69 10z"/>
<path d="M440 7133 c0 -5 23 -80 50 -168 28 -88 50 -167 50 -177 0 -21 -18
-34 -31 -21 -5 5 -36 82 -69 172 -33 91 -62 167 -65 169 -3 3 -10 1 -16 -5 -8
-8 4 -55 41 -165 64 -192 78 -218 123 -218 42 0 57 15 57 58 0 70 -101 362
-126 362 -8 0 -14 -3 -14 -7z"/>
<path d="M6431 7096 c-28 -29 -111 -263 -113 -317 -3 -74 59 -104 104 -51 28
34 110 272 112 325 1 65 -59 90 -103 43z m59 -46 c0 -35 -75 -267 -95 -294
-16 -21 -35 -13 -35 14 0 27 77 259 95 287 21 31 35 29 35 -7z"/>
<path d="M4223 6875 c-20 -41 -24 -42 -63 -13 -36 26 -51 17 -76 -48 -20 -51
-14 -105 17 -166 17 -34 19 -43 7 -54 -20 -20 -108 -34 -214 -34 l-94 0 0 -35
c0 -54 51 -99 139 -121 39 -10 67 -22 63 -26 -9 -9 -169 -28 -239 -28 -63 0
-66 -10 -23 -62 40 -49 119 -85 203 -94 37 -3 67 -10 67 -15 0 -14 -128 -93
-182 -114 -36 -13 -66 -16 -124 -13 -87 6 -94 0 -75 -62 21 -71 101 -120 197
-120 46 0 132 23 187 51 20 11 37 16 37 11 0 -15 -113 -94 -180 -126 -58 -27
-75 -31 -162 -31 -54 -1 -100 -4 -104 -7 -11 -12 46 -107 83 -137 103 -85 281
-56 447 73 33 25 65 46 72 46 7 0 29 -22 48 -49 44 -60 101 -111 123 -111 10
0 34 16 55 37 l37 36 63 -28 c76 -35 162 -44 204 -22 48 25 86 72 87 109 2 25
-2 32 -13 29 -8 -2 -31 -8 -50 -14 -83 -23 -175 29 -224 126 -26 52 -30 71
-34 182 -5 140 1 188 28 215 18 18 30 19 162 13 l143 -6 39 36 c42 40 43 56 1
76 -39 19 -11 34 39 20 31 -9 41 -18 58 -56 l20 -45 25 24 c70 66 71 160 1
225 -28 27 -80 46 -202 74 -158 37 -222 80 -291 193 -22 36 -46 66 -53 66 -7
0 -28 -11 -46 -25 -18 -14 -38 -25 -45 -25 -7 0 -38 18 -68 40 -31 22 -60 40
-65 40 -4 0 -16 -16 -25 -35z m95 -94 c31 -29 32 -33 32 -109 l0 -80 -59 -51
c-63 -54 -96 -114 -85 -155 7 -31 -15 -52 -95 -89 -74 -35 -200 -49 -240 -27
-13 6 -20 14 -17 17 2 3 42 11 88 19 163 28 213 58 206 121 l-3 28 -100 1
c-72 0 -112 6 -142 18 -24 10 -41 22 -38 26 3 4 53 11 112 15 114 7 168 17
220 42 l33 15 -45 52 c-48 57 -65 92 -65 136 0 47 15 43 61 -12 49 -62 90 -99
100 -92 4 2 3 19 -2 37 -11 39 -12 117 -1 117 4 0 22 -13 40 -29z m182 -17
c12 -19 19 -38 15 -42 -9 -9 -55 44 -55 64 0 25 18 15 40 -22z m-62 -104 c8
-13 23 -20 42 -20 35 0 39 -14 10 -30 -30 -16 -74 8 -78 43 -4 32 8 35 26 7z
m142 -91 c-6 -11 -35 -35 -63 -53 -29 -19 -63 -46 -76 -60 -29 -31 -51 -34
-51 -6 0 27 -13 25 -62 -10 -85 -62 -94 -21 -13 57 l55 54 73 -6 c67 -6 74 -5
102 19 37 31 49 33 35 5z m72 -36 c-39 -49 -92 -99 -92 -87 0 13 100 124 112
124 5 0 -4 -17 -20 -37z m232 15 c86 -23 136 -59 136 -97 0 -25 -3 -25 -58 -4
-39 14 -55 15 -123 5 -82 -12 -191 -50 -192 -67 0 -15 42 -33 107 -46 38 -7
55 -14 48 -21 -10 -10 -128 8 -215 33 l-39 10 104 104 c71 70 111 103 127 104
14 0 61 -9 105 -21z m-464 -191 c34 -2 35 -4 38 -44 4 -49 -29 -133 -51 -133
-8 0 -26 18 -41 40 -28 43 -40 47 -70 25 -26 -20 -46 -3 -46 39 0 55 43 90
100 81 19 -4 51 -7 70 -8z m-220 -132 c0 -38 -22 -74 -82 -131 -129 -123 -195
-158 -300 -158 -62 -1 -81 3 -95 17 -17 18 -17 19 1 33 11 8 29 14 41 14 77 0
230 82 343 184 40 36 77 66 82 66 6 0 10 -11 10 -25z m113 -87 c-3 -55 -102
-162 -133 -143 -29 18 0 85 60 139 47 42 76 44 73 4z m108 -30 c13 -25 7 -115
-11 -148 -16 -30 -30 -14 -41 46 -16 86 21 160 52 102z m-106 -139 c11 -33 -5
-126 -25 -151 -18 -22 -18 -23 -39 -4 -17 15 -21 31 -21 77 0 51 3 60 28 78
35 26 49 26 57 0z m-145 -96 c0 -111 -230 -249 -378 -227 -43 6 -93 37 -81 49
4 3 34 13 68 21 83 19 171 61 266 127 92 64 125 72 125 30z m230 -149 c0 -58
-2 -64 -21 -64 -24 0 -79 51 -79 74 0 23 73 70 93 59 4 -2 7 -33 7 -69z m238
-41 l57 -18 -38 -3 c-25 -2 -49 4 -72 18 -36 22 -47 37 -20 26 9 -3 41 -14 73
-23z"/>
<path d="M2433 6834 c-24 -14 -70 -30 -103 -36 -69 -12 -90 -27 -90 -66 0 -51
41 -177 87 -269 49 -99 51 -117 23 -215 l-14 -47 45 -48 46 -49 7 -124 c5
-110 9 -127 27 -142 25 -21 108 -25 127 -6 17 17 15 238 -3 313 -19 78 -20 75
15 68 39 -7 70 19 70 59 0 25 2 27 19 16 17 -10 24 -9 41 7 17 16 21 28 17 57
-5 35 -4 36 15 25 17 -10 23 -8 44 18 38 48 32 72 -51 188 -54 75 -78 118 -84
151 -11 58 -24 74 -86 102 -64 30 -100 30 -152 -2z m164 -65 c7 -6 13 -26 13
-43 0 -20 17 -56 45 -100 26 -39 45 -81 45 -97 0 -20 -24 -55 -85 -128 -47
-56 -87 -112 -91 -124 -3 -13 2 -71 10 -129 16 -109 21 -214 10 -242 -7 -18
-30 -21 -39 -6 -3 5 -12 61 -19 123 -11 91 -19 124 -41 161 -26 44 -26 49 -15
97 17 68 7 116 -40 206 -44 82 -85 205 -77 227 3 8 30 19 61 26 32 6 70 23 91
40 35 28 37 28 77 14 23 -8 47 -19 55 -25z m95 -367 c-98 -107 -130 -137 -138
-130 -7 7 41 64 140 166 39 40 72 68 74 62 2 -6 -32 -50 -76 -98z m118 50 c0
-14 -36 -43 -43 -35 -4 3 0 15 10 25 17 19 33 24 33 10z m-90 -118 c0 -8 -4
-14 -9 -14 -11 0 -22 26 -14 34 9 9 23 -3 23 -20z m-70 -64 c0 -11 -2 -20 -4
-20 -2 0 -11 -3 -20 -6 -19 -7 -22 16 -4 34 18 18 28 15 28 -8z"/>
<path d="M2424 6614 c-25 -37 -9 -78 31 -82 48 -6 75 56 39 92 -23 23 -51 19
-70 -10z"/>
<path d="M2107 6659 c-26 -17 -58 -46 -71 -63 -28 -37 -49 -102 -44 -136 3
-22 10 -26 58 -33 30 -4 59 -12 64 -17 5 -5 -28 -27 -83 -54 -50 -26 -91 -51
-91 -56 0 -6 10 -14 23 -19 37 -14 227 -51 264 -51 44 0 86 40 104 98 12 41
11 46 -29 130 -23 48 -54 119 -70 157 -35 85 -53 92 -125 44z m83 -124 c21
-47 48 -97 59 -112 43 -54 17 -133 -44 -133 -38 0 -65 8 -65 20 0 5 14 22 31
39 26 26 30 37 27 73 -3 41 -5 44 -43 55 -22 7 -52 15 -67 18 -40 8 -38 47 6
91 19 19 39 34 45 34 6 0 29 -38 51 -85z"/>
<path d="M1890 6579 c-105 -58 -150 -126 -135 -206 7 -37 64 -83 104 -83 22 0
23 3 18 36 -5 31 -1 41 34 79 32 35 42 54 49 102 19 116 16 120 -70 72z m10
-85 c0 -26 -57 -94 -79 -94 -25 0 -7 55 32 98 27 30 47 28 47 -4z"/>
<path d="M2841 6373 c-24 -25 -31 -40 -31 -72 0 -37 19 -71 41 -71 5 0 23 13
41 29 31 27 32 30 20 67 -6 22 -18 48 -26 59 -13 18 -15 18 -45 -12z m38 -55
c9 -25 -3 -48 -24 -48 -17 0 -25 23 -18 49 7 28 31 27 42 -1z"/>
<path d="M2741 6261 c-24 -24 -28 -83 -8 -99 16 -13 53 1 65 25 11 21 -6 84
-25 90 -6 3 -21 -5 -32 -16z m39 -52 c0 -20 -25 -37 -37 -25 -3 3 -1 17 5 32
13 28 32 24 32 -7z"/>
<path d="M2872 6207 c-22 -23 -28 -68 -16 -114 14 -52 88 -9 88 50 0 40 -21
87 -39 87 -6 0 -21 -10 -33 -23z m43 -53 c0 -19 -5 -29 -15 -29 -16 0 -25 28
-16 51 10 25 31 10 31 -22z"/>
<path d="M2648 6189 c-21 -12 -25 -88 -6 -107 34 -34 73 14 60 74 -8 41 -25
51 -54 33z m32 -48 c0 -20 -17 -37 -27 -28 -7 8 7 47 18 47 5 0 9 -9 9 -19z"/>
<path d="M2759 6117 c-21 -16 -30 -57 -23 -96 5 -24 12 -31 30 -31 49 0 80 67
58 124 -7 19 -42 20 -65 3z m22 -80 c-7 -7 -13 -3 -20 14 -7 18 -5 27 7 37 15
11 17 10 20 -14 2 -14 -1 -31 -7 -37z"/>
<path d="M2660 6041 c-22 -22 -30 -39 -30 -66 0 -43 20 -54 55 -31 21 14 25
24 25 66 0 27 -5 52 -10 55 -6 4 -24 -7 -40 -24z m20 -51 c0 -11 -7 -20 -15
-20 -17 0 -18 2 -9 24 9 23 24 20 24 -4z"/>
<path d="M2891 6039 c-24 -26 -28 -76 -7 -105 14 -18 17 -18 43 -4 37 21 50
58 32 96 -18 37 -42 41 -68 13z m46 -39 c4 -21 -13 -44 -26 -36 -6 4 -11 18
-11 32 0 19 5 25 17 22 10 -2 19 -10 20 -18z"/>
<path d="M2783 5964 c-46 -27 -63 -68 -43 -103 14 -26 36 -26 78 -1 28 17 32
25 32 64 0 61 -16 71 -67 40z m27 -59 c0 -14 -2 -25 -4 -25 -2 0 -11 -3 -20
-6 -12 -5 -16 0 -16 18 0 28 7 38 27 38 7 0 13 -11 13 -25z"/>
<path d="M2932 5914 c-32 -22 -28 -51 29 -189 59 -145 71 -159 120 -145 63 18
65 22 46 82 -21 68 -99 229 -121 251 -22 21 -45 22 -74 1z m114 -169 c50 -104
52 -115 24 -115 -21 0 -51 50 -91 151 -15 41 -17 54 -7 60 20 12 28 1 74 -96z"/>
<path d="M2650 5897 c-19 -10 -25 -20 -25 -47 0 -31 3 -35 27 -38 23 -3 30 2
38 24 12 32 10 66 -5 71 -5 1 -21 -3 -35 -10z m11 -50 c-8 -8 -11 -7 -11 4 0
20 13 34 18 19 3 -7 -1 -17 -7 -23z"/>
<path d="M2836 5845 c-28 -21 -24 -65 13 -160 42 -109 54 -125 97 -125 20 0
37 6 40 14 9 24 -99 277 -121 283 -5 1 -19 -4 -29 -12z m65 -112 c29 -68 36
-107 18 -101 -13 4 -57 107 -58 136 -2 28 21 9 40 -35z"/>
<path d="M2244 5762 c-191 -132 -196 -141 -102 -162 99 -22 112 -16 205 89 46
52 83 100 83 107 0 16 -39 44 -60 44 -8 -1 -65 -36 -126 -78z m126 19 c0 -34
-149 -162 -180 -154 -50 13 -32 40 75 114 66 45 105 60 105 40z"/>
<path d="M291 5770 c-10 -17 -29 -61 -41 -99 -20 -58 -22 -72 -11 -85 23 -28
40 -18 71 44 17 33 33 60 36 60 3 0 2 -26 -2 -59 -8 -75 6 -84 40 -26 15 25
29 45 31 45 2 0 1 -24 -2 -54 -7 -64 0 -88 22 -80 15 6 55 119 55 158 0 57
-82 126 -150 126 -23 0 -35 -7 -49 -30z"/>
<path d="M2722 5783 c-9 -23 -9 -182 0 -205 6 -15 20 -18 78 -18 38 0 70 2 70
4 0 8 -29 85 -60 159 -27 66 -35 77 -56 77 -14 0 -28 -8 -32 -17z m66 -108
c12 -31 22 -62 22 -70 0 -23 -30 -18 -39 8 -12 33 -22 117 -13 117 4 0 17 -25
30 -55z"/>
<path d="M2400 5714 c-33 -41 -65 -84 -70 -95 -13 -22 -9 -24 65 -38 45 -9 52
-7 73 12 28 26 92 137 92 160 0 21 -30 37 -69 37 -26 0 -40 -11 -91 -76z m97
20 c3 -8 -5 -38 -17 -65 -18 -38 -29 -49 -47 -49 -32 0 -30 25 7 83 31 49 47
58 57 31z"/>
<path d="M2598 5757 c-33 -50 -79 -150 -76 -165 6 -32 141 -44 153 -14 13 35
23 166 14 184 -15 27 -73 24 -91 -5z m53 -73 c-2 -27 -7 -57 -12 -66 -10 -18
-54 -25 -63 -10 -4 7 29 92 47 120 18 27 32 5 28 -44z"/>
<path d="M6640 5720 c-12 -7 -16 -42 -20 -167 -3 -87 -9 -164 -13 -170 -12
-19 -55 -15 -66 5 -6 11 -15 79 -21 153 -6 74 -15 138 -20 143 -24 24 -30 -12
-30 -184 l0 -178 37 -32 c33 -29 41 -32 85 -28 67 7 107 45 102 96 -2 21 -6
112 -10 205 -6 169 -9 179 -44 157z"/>
<path d="M4112 5654 c-28 -25 -52 -50 -52 -55 0 -13 177 -12 185 1 10 16 -43
100 -63 100 -10 0 -41 -21 -70 -46z"/>
<path d="M6566 5669 c-11 -25 -2 -234 9 -234 13 0 19 194 6 226 -7 19 -10 21
-15 8z"/>
<path d="M590 5640 c-39 -39 -70 -155 -47 -177 12 -12 16 -12 30 2 9 9 21 34
27 55 15 55 20 50 13 -14 -3 -31 -1 -56 4 -59 14 -9 39 22 52 63 10 32 10 30
5 -21 -4 -43 -2 -59 11 -69 25 -20 36 -1 48 83 13 91 3 121 -48 143 -47 19
-71 18 -95 -6z"/>
<path d="M6330 5621 c-5 -11 -10 -46 -11 -78 -2 -108 -13 -168 -31 -171 -24
-5 -38 29 -52 117 -9 55 -16 76 -26 76 -12 0 -15 -26 -18 -146 l-3 -147 32
-26 c37 -31 87 -34 120 -7 23 19 24 25 27 186 4 167 0 215 -18 215 -5 0 -14
-9 -20 -19z"/>
<path d="M830 5577 c-32 -16 -48 -50 -56 -120 -5 -39 -3 -61 6 -72 18 -22 30
-9 31 33 1 20 4 48 9 62 6 20 9 13 15 -38 4 -34 12 -65 17 -69 16 -9 27 18 21
54 -7 40 16 78 28 46 4 -10 8 -35 8 -55 1 -43 16 -57 39 -35 19 19 20 123 2
157 -6 12 -27 28 -45 36 -41 17 -43 17 -75 1z"/>
<path d="M6267 5574 c-8 -8 0 -116 10 -144 8 -24 21 17 22 71 1 45 -18 87 -32
73z"/>
<path d="M5046 5531 c-3 -4 -3 -31 1 -60 5 -47 10 -55 50 -83 105 -76 186
-268 200 -470 11 -182 -23 -340 -154 -698 -137 -375 -160 -473 -150 -623 10
-154 68 -248 172 -277 116 -32 205 33 205 148 0 46 -4 58 -29 83 -34 34 -83
39 -133 13 -46 -24 -53 -9 -51 110 3 126 35 259 122 498 109 302 136 452 128
697 -3 92 -13 202 -22 246 -24 118 -85 235 -165 316 -78 79 -158 126 -174 100z"/>
<path d="M1855 5158 c-4 -200 -5 -667 -3 -1038 5 -739 6 -750 69 -994 68 -260
159 -464 314 -697 177 -265 414 -503 677 -680 122 -81 405 -229 439 -229 38 0
292 140 434 238 201 139 519 430 658 602 94 117 218 311 299 470 180 351 203
458 218 1000 13 443 13 1650 0 1670 -8 13 -194 15 -1553 18 l-1545 3 -7 -363z
m3063 314 c11 -14 13 -190 9 -1002 -5 -856 -7 -996 -22 -1070 -22 -116 -48
-201 -112 -360 -121 -303 -257 -511 -515 -788 -255 -274 -520 -480 -813 -631
-84 -44 -106 -51 -135 -46 -62 11 -231 99 -365 190 -186 126 -275 198 -397
321 -338 342 -545 736 -643 1223 l-25 124 0 1011 c0 556 3 1022 7 1035 l6 24
1496 -7 c1403 -6 1497 -7 1509 -24z"/>
<path d="M2742 5460 c-104 -24 -136 -161 -55 -237 30 -29 41 -33 86 -33 29 1
62 6 74 13 62 35 90 124 58 191 -26 55 -93 81 -163 66z m69 -80 c13 -48 10
-118 -7 -134 -20 -20 -40 -20 -48 0 -8 22 -8 149 1 158 15 15 47 0 54 -24z"/>
<path d="M2285 5450 c-3 -5 1 -20 9 -32 12 -17 16 -48 16 -120 l0 -97 34 -7
c19 -3 49 -3 66 1 31 7 32 8 27 51 -5 50 2 59 56 69 51 10 87 40 87 73 0 59
-31 72 -174 72 -66 0 -117 -4 -121 -10z m201 -51 c3 -6 -1 -18 -10 -27 -15
-15 -17 -15 -32 0 -19 19 -11 38 16 38 10 0 22 -5 26 -11z"/>
<path d="M3012 5449 c-22 -8 -22 -10 -8 -31 19 -27 23 -177 5 -195 -21 -21 2
-33 62 -33 l59 0 0 35 c0 19 3 35 6 35 3 0 20 -11 37 -24 43 -33 83 -47 113
-40 33 8 31 17 -16 68 l-40 43 31 29 c42 40 38 82 -11 106 -39 20 -196 24
-238 7z m177 -52 c14 -18 4 -27 -30 -27 -29 0 -44 13 -34 30 9 15 51 12 64 -3z"/>
<path d="M3838 5453 c-13 -3 -16 -11 -11 -33 6 -31 -29 -97 -93 -176 -38 -47
-33 -54 36 -54 45 0 56 11 39 38 -10 16 -8 26 9 54 12 19 30 42 40 51 18 17
22 14 81 -53 34 -38 70 -70 79 -70 9 0 38 21 65 48 l48 47 20 -24 c11 -14 19
-36 17 -50 l-3 -26 88 -3 c70 -2 87 0 87 11 0 8 -7 21 -16 28 -26 21 -97 131
-110 169 -10 29 -18 36 -43 38 -26 3 -33 -1 -41 -25 -14 -39 -28 -64 -50 -93
l-19 -25 -73 78 c-75 79 -90 86 -150 70z"/>
<path d="M4460 5454 c-12 -4 -15 -27 -14 -132 l1 -127 56 0 c31 0 58 3 61 6 3
3 1 31 -5 62 -9 43 -9 71 0 118 7 33 10 63 7 66 -7 7 -88 13 -106 7z"/>
<path d="M1947 5313 c-9 -8 -9 -108 -1 -116 4 -3 15 -2 25 4 22 11 55 -4 108
-49 l35 -29 -48 -28 c-27 -16 -64 -29 -84 -30 -31 -1 -37 -5 -44 -30 -11 -38
-1 -95 16 -95 7 0 47 19 87 42 41 23 93 52 117 65 65 37 55 64 -48 129 -74 47
-122 86 -140 116 -9 15 -20 25 -23 21z"/>
<path d="M4848 5179 c-14 -21 -23 -24 -86 -24 -55 0 -74 4 -92 20 -29 27 -40
8 -40 -72 l0 -63 30 0 30 0 -30 -47 c-29 -46 -41 -113 -20 -113 5 0 22 14 37
30 32 36 42 37 89 5 88 -60 123 -12 124 171 0 51 -5 87 -13 98 -12 17 -14 17
-29 -5z m-18 -139 c11 -7 12 -15 4 -37 -13 -37 -41 -42 -55 -9 -21 44 10 72
51 46z"/>
<path d="M2285 5136 c-19 -14 -20 -37 -28 -877 l-9 -862 27 -120 c35 -156 71
-256 160 -435 110 -221 196 -344 345 -492 132 -131 223 -209 328 -280 89 -60
192 -110 227 -110 40 0 231 95 329 163 150 104 430 383 564 563 144 191 266
416 303 559 25 97 35 359 47 1200 8 537 6 674 -12 692 -4 4 -515 9 -1135 11
-964 2 -1130 0 -1146 -12z m2150 -45 l100 -6 3 -250 c4 -334 -15 -1346 -28
-1465 -14 -134 -33 -201 -88 -309 -148 -296 -449 -658 -708 -850 -113 -84
-265 -173 -340 -200 l-45 -16 -66 35 c-327 173 -605 457 -767 785 -78 158
-127 283 -163 413 l-27 97 -4 790 c-3 748 -1 895 17 895 14 0 51 -78 51 -107
0 -34 55 -123 76 -123 22 0 17 48 -16 145 -16 49 -30 98 -30 109 1 40 25 -8
63 -127 44 -137 110 -247 162 -271 78 -37 115 -45 178 -39 63 6 64 5 99 -31
23 -24 59 -46 102 -61 36 -13 86 -39 112 -57 82 -58 95 -66 134 -72 45 -7 100
-58 100 -92 0 -29 -25 -86 -72 -166 -29 -48 -43 -88 -53 -145 l-14 -78 39 -77
c21 -43 50 -117 65 -165 24 -83 29 -92 87 -145 l62 -58 -22 -68 c-12 -38 -29
-118 -37 -178 -9 -60 -27 -147 -41 -194 -15 -48 -30 -128 -35 -185 -4 -55 -15
-127 -25 -160 -13 -48 -15 -85 -10 -188 6 -146 22 -187 87 -233 70 -48 109
-17 109 88 0 91 19 158 62 219 21 31 43 73 49 94 6 21 31 59 56 86 37 40 44
53 39 74 -6 24 -4 25 36 25 39 0 46 5 127 88 47 48 107 102 133 121 26 18 68
62 93 97 70 94 101 121 179 150 39 15 80 37 92 49 25 25 45 108 42 175 -2 35
8 66 41 139 39 85 43 99 38 148 -7 64 -14 74 -122 158 -97 76 -111 83 -177 95
-63 12 -84 30 -93 78 -10 55 -20 67 -93 119 -37 26 -90 66 -119 89 -45 36 -59
42 -119 47 -38 4 -105 19 -151 33 l-82 27 -62 -22 -61 -23 -29 21 c-20 15 -43
21 -83 21 -60 0 -82 14 -92 58 -18 84 -21 88 -77 98 -47 8 -52 11 -50 34 1 14
5 55 9 93 l7 67 -36 0 c-27 0 -47 -9 -82 -40 -51 -44 -61 -46 -108 -26 -58 24
-71 49 -77 144 l-5 85 -45 33 c-25 18 -67 40 -94 48 -55 18 -96 41 -96 56 0
11 1725 12 1895 1z"/>
<path d="M3253 4783 c-30 -6 -47 -27 -31 -40 7 -6 66 -28 131 -49 134 -43 161
-58 137 -74 -27 -18 10 -30 85 -28 54 2 70 6 70 18 0 15 -144 121 -217 160
-36 19 -114 25 -175 13z"/>
<path d="M3781 4601 c-29 -8 -64 -62 -47 -73 6 -4 39 -8 73 -8 107 0 141 27
87 69 -27 21 -67 25 -113 12z"/>
<path d="M3487 4553 c-12 -11 14 -33 39 -33 28 0 42 19 23 31 -17 10 -53 12
-62 2z"/>
<path d="M3991 4551 c-23 -15 -5 -41 28 -41 39 0 47 15 19 34 -26 18 -28 19
-47 7z"/>
<path d="M4126 4133 c-12 -12 -6 -44 10 -50 18 -7 35 13 27 33 -5 15 -29 25
-37 17z"/>
<path d="M1952 4902 c-9 -6 -13 -47 -15 -148 l-2 -139 39 -3 38 -3 -7 38 c-4
21 -7 43 -8 48 -1 6 32 11 77 13 68 2 84 0 108 -18 15 -11 32 -20 38 -20 6 0
10 33 10 84 0 91 -12 116 -38 78 -13 -20 -23 -22 -104 -22 -98 0 -108 6 -90
59 8 24 7 31 -5 35 -19 8 -25 7 -41 -2z"/>
<path d="M4634 4785 c-3 -7 -4 -32 -2 -56 3 -41 5 -44 31 -41 l27 3 0 -71 0
-71 -35 7 -35 6 0 -53 c0 -30 -3 -71 -6 -91 -5 -26 -3 -38 5 -38 12 0 183 131
239 183 49 47 43 60 -44 102 -43 21 -97 57 -126 85 -32 31 -51 43 -54 35z
m142 -176 c7 -12 -15 -31 -28 -23 -4 3 -8 12 -8 20 0 17 26 19 36 3z"/>
<path d="M1934 4535 c-6 -26 0 -102 9 -112 3 -2 15 1 28 7 15 8 62 11 143 9
l121 -4 3 58 c3 61 -13 82 -42 57 -16 -12 -194 -9 -233 4 -18 7 -23 4 -29 -19z"/>
<path d="M1967 4380 c-23 -19 -25 -27 -31 -132 -4 -62 -3 -129 2 -148 7 -30
12 -34 33 -30 31 6 174 6 219 0 l35 -5 3 59 c3 64 -8 87 -32 67 -20 -17 -81
-10 -81 9 0 8 26 32 58 53 53 36 57 41 57 77 0 21 -4 42 -10 45 -5 3 -32 -4
-60 -16 l-51 -22 -22 20 c-51 47 -82 53 -120 23z m81 -112 c7 -7 12 -29 12
-51 0 -38 0 -38 -37 -35 -35 3 -38 6 -41 36 -5 52 34 82 66 50z"/>
<path d="M4614 4314 c-11 -43 5 -277 19 -286 24 -15 32 -1 35 60 2 34 6 62 10
62 4 0 49 -39 101 -86 69 -64 96 -83 105 -74 14 14 21 229 9 285 -7 34 -13 40
-37 43 -28 4 -28 3 -20 -40 12 -63 11 -103 -3 -103 -6 0 -53 37 -103 83 -50
45 -95 82 -100 82 -5 0 -13 -12 -16 -26z"/>
<path d="M1934 3983 c-3 -18 -3 -48 0 -65 l6 -33 137 3 c93 2 140 7 145 15 13
20 9 97 -4 102 -7 2 -73 5 -145 7 l-133 4 -6 -33z"/>
<path d="M4615 3940 c-4 -16 -4 -43 0 -60 5 -25 12 -30 35 -30 31 0 40 -18 40
-80 0 -51 -12 -63 -49 -55 l-31 7 0 -96 c0 -101 9 -117 35 -67 10 20 49 50
121 93 116 69 139 95 109 128 -10 11 -25 20 -33 20 -30 0 -179 109 -192 140
-16 38 -27 38 -35 0z m155 -165 c0 -8 -5 -17 -11 -21 -14 -8 -29 14 -22 32 6
16 33 7 33 -11z"/>
<path d="M2005 3850 c-65 -9 -65 -10 -65 -134 l0 -114 109 6 c90 4 113 2 132
-12 13 -9 27 -16 31 -16 5 0 8 34 8 74 l0 75 -56 -2 c-63 -2 -64 0 -78 84 -7
41 -21 48 -81 39z m29 -73 c24 -18 17 -51 -12 -55 -23 -3 -52 13 -52 29 0 10
29 39 39 39 4 0 15 -6 25 -13z"/>
<path d="M1947 3554 c-12 -21 -19 -87 -12 -130 8 -57 34 -84 80 -84 30 0 39 7
75 55 44 59 66 68 79 33 10 -27 4 -53 -15 -69 -8 -6 -14 -20 -14 -31 0 -16 6
-19 41 -16 l42 3 4 82 c5 114 -18 153 -90 153 -36 0 -46 -6 -87 -50 -25 -27
-49 -50 -53 -50 -14 0 -6 33 14 62 12 16 19 31 16 34 -9 10 -75 16 -80 8z"/>
<path d="M4597 3284 c-9 -32 -14 -61 -11 -65 3 -5 18 -9 35 -9 24 0 29 -4 29
-25 0 -33 -22 -41 -53 -21 -19 13 -26 14 -34 4 -18 -23 -36 -62 -44 -95 -6
-31 -5 -33 20 -33 42 0 125 -27 155 -51 33 -26 48 -16 72 48 17 44 17 46 -1
59 -10 8 -27 14 -37 14 -24 0 -33 23 -18 49 13 25 33 27 50 6 7 -8 19 -15 26
-15 19 0 44 53 47 97 2 37 2 37 -36 34 -42 -3 -130 23 -147 45 -22 26 -37 14
-53 -42z"/>
<path d="M2168 3218 c-3 -7 6 -30 19 -50 32 -48 28 -82 -11 -86 -27 -3 -28 -2
-23 26 7 34 -6 44 -41 31 -19 -7 -22 -14 -17 -31 12 -38 11 -42 -12 -46 -27
-4 -44 31 -40 81 2 28 -1 32 -23 32 -23 0 -25 -3 -25 -50 1 -54 46 -185 71
-206 12 -9 16 -6 25 19 16 47 102 68 187 48 41 -11 41 -10 -6 129 -36 107 -38
110 -68 113 -20 2 -34 -2 -36 -10z"/>
<path d="M4473 2997 c-49 -53 -64 -117 -28 -117 16 0 19 -17 6 -38 -7 -12 -12
-12 -30 0 -20 12 -25 10 -47 -17 -56 -68 -86 -117 -76 -127 6 -6 37 -6 88 1
44 5 112 13 152 17 48 4 75 11 79 20 3 7 -16 53 -41 100 -26 48 -51 107 -57
131 -14 54 -21 58 -46 30z m50 -182 c7 -18 -6 -27 -27 -19 -17 7 -20 16 -9 27
11 12 31 8 36 -8z"/>
<path d="M2372 2748 c-19 -19 -14 -31 28 -60 24 -17 40 -36 40 -47 0 -26 -118
-111 -154 -111 -41 0 -30 -35 32 -102 32 -35 37 -35 51 0 14 33 97 100 138
111 40 11 40 39 -3 96 -41 55 -105 125 -114 125 -3 0 -11 -5 -18 -12z"/>
<path d="M4215 2613 c-82 -101 -108 -161 -86 -201 6 -11 33 -28 60 -37 27 -9
54 -22 61 -29 20 -25 49 -25 79 0 42 35 148 177 136 181 -6 2 -51 30 -99 63
-49 33 -96 60 -105 60 -9 0 -29 -17 -46 -37z m59 -68 c20 -15 20 -15 -1 -43
-40 -54 -95 -23 -59 33 19 28 33 31 60 10z m90 -78 c13 -21 -20 -59 -48 -55
-29 4 -31 29 -5 56 23 25 37 25 53 -1z"/>
<path d="M2559 2504 c-11 -13 -8 -20 19 -45 32 -30 34 -52 4 -64 -10 -4 -22 2
-33 16 -31 42 -65 4 -37 -41 11 -17 9 -23 -9 -41 -29 -29 -49 -19 -57 30 -8
52 -20 58 -52 26 l-26 -26 20 -30 c31 -49 122 -149 135 -149 7 1 21 15 32 32
28 45 114 108 147 108 51 0 45 15 -52 133 -58 70 -69 77 -91 51z"/>
<path d="M3979 2313 c-81 -78 -88 -90 -67 -111 9 -9 22 -2 54 28 24 22 50 40
59 40 8 0 36 -27 61 -60 51 -65 56 -66 108 -11 l30 31 -41 35 c-23 19 -54 55
-70 80 -15 25 -34 45 -42 45 -7 0 -49 -35 -92 -77z"/>
<path d="M3806 2171 c-24 -24 -26 -32 -17 -50 16 -29 2 -52 -56 -90 -53 -35
-76 -36 -81 -3 -4 28 -25 28 -65 0 -79 -53 -101 -88 -57 -88 11 0 71 -26 135
-57 81 -41 118 -54 125 -47 6 6 22 76 35 155 13 79 27 159 30 177 10 42 -11
43 -49 3z m-23 -177 c3 -3 1 -19 -5 -35 -12 -34 -40 -36 -46 -5 -5 26 34 57
51 40z"/>
<path d="M2896 2147 c-24 -139 -44 -282 -40 -289 10 -16 47 -7 91 23 25 18 86
46 136 64 50 18 93 38 95 44 2 6 -13 19 -34 28 -36 18 -37 18 -52 -5 -20 -30
-45 -28 -84 7 -30 27 -31 30 -19 57 12 27 11 30 -19 56 -45 37 -69 42 -74 15z
m103 -170 c14 -17 4 -27 -26 -27 -16 0 -23 6 -23 20 0 23 31 27 49 7z"/>
<path d="M3207 1963 c-11 -11 -8 -48 8 -93 14 -40 14 -43 -10 -78 -31 -45 -31
-69 -2 -104 24 -29 134 -68 193 -68 l33 0 -6 49 c-5 41 15 168 34 217 4 12
-75 44 -109 44 -16 0 -17 -6 -12 -40 13 -83 -21 -89 -45 -8 -7 24 -19 53 -27
66 -14 21 -43 29 -57 15z m113 -212 c22 -41 -19 -69 -43 -29 -8 12 -7 21 2 32
18 21 28 20 41 -3z"/>
<path d="M1037 5480 c-18 -14 -29 -37 -37 -75 -12 -60 -8 -75 20 -75 14 0 20
10 26 43 5 34 8 38 15 22 4 -11 8 -32 8 -47 1 -16 5 -28 11 -28 13 0 30 34 31
62 0 22 1 22 9 3 5 -11 9 -32 9 -47 2 -64 36 -15 48 67 5 37 2 44 -27 68 -38
32 -78 35 -113 7z"/>
<path d="M6087 5484 c-4 -4 -7 -49 -7 -99 0 -71 -4 -96 -15 -105 -21 -18 -25
-11 -36 66 -12 87 -15 96 -35 92 -15 -3 -17 -17 -15 -98 2 -103 14 -135 55
-146 14 -3 37 1 54 10 38 20 44 46 40 181 -2 81 -6 100 -18 103 -9 1 -19 0
-23 -4z"/>
<path d="M195 5458 c-13 -54 -46 -378 -56 -550 -13 -205 -9 -231 39 -268 19
-16 40 -20 93 -20 105 0 102 -11 134 458 20 295 20 302 -5 302 -10 0 -23 -8
-28 -17 -6 -10 -15 -88 -21 -173 -30 -391 -45 -465 -94 -458 -16 2 -23 13 -30
43 -13 58 -1 400 18 544 l17 125 -22 18 c-29 24 -39 23 -45 -4z"/>
<path d="M1723 5428 c-106 -98 -170 -251 -199 -473 -14 -107 -14 -154 -5 -319
12 -203 24 -286 90 -606 42 -198 51 -312 31 -366 -10 -25 -13 -26 -53 -19 -60
11 -93 8 -122 -11 -35 -23 -55 -65 -55 -115 0 -121 139 -182 266 -116 63 32
108 84 135 157 18 48 20 69 16 165 -6 116 -19 173 -101 438 -86 275 -122 514
-113 742 7 199 38 287 142 409 57 67 71 100 60 135 -10 32 -41 25 -92 -21z"/>
<path d="M1237 5419 c-36 -21 -62 -108 -37 -124 6 -4 17 8 24 26 l14 32 7 -32
c5 -25 10 -30 20 -21 8 6 16 21 18 33 3 13 5 7 6 -15 3 -78 41 -44 41 36 0 35
-5 48 -22 60 -26 18 -46 20 -71 5z"/>
<path d="M300 5374 c-27 -70 -63 -545 -42 -558 14 -8 18 13 42 219 29 251 35
351 21 359 -6 4 -15 -4 -21 -20z"/>
<path d="M5893 5393 c-8 -3 -13 -25 -13 -61 0 -60 -14 -100 -24 -72 -3 8 -9
33 -14 55 -5 27 -14 41 -26 43 -17 4 -18 -2 -12 -80 8 -94 21 -113 71 -103 47
8 55 29 55 132 0 94 -3 100 -37 86z"/>
<path d="M1392 5348 c-27 -30 -38 -74 -22 -93 18 -21 27 -19 44 13 l14 27 7
-27 c4 -16 13 -28 19 -28 7 0 17 12 23 28 l11 27 1 -33 c1 -26 5 -33 19 -30
12 2 18 15 20 45 3 35 -2 48 -22 68 -33 33 -84 34 -114 3z"/>
<path d="M5050 5256 c0 -53 4 -98 10 -101 6 -3 22 2 38 13 18 13 37 18 60 15
26 -4 32 -2 32 12 0 24 -56 110 -88 135 -46 37 -52 29 -52 -74z"/>
<path d="M510 5318 c-9 -22 -50 -511 -50 -596 0 -69 60 -104 122 -71 35 19 47
72 73 328 30 305 31 314 8 309 -21 -4 -31 -61 -59 -342 -17 -166 -20 -179 -41
-189 -12 -5 -29 -7 -37 -4 -20 8 -20 45 -2 264 26 300 26 323 5 323 -5 0 -14
-10 -19 -22z"/>
<path d="M5715 5328 c-2 -7 -6 -35 -7 -63 -2 -37 -7 -51 -19 -53 -13 -2 -18 8
-23 42 -6 40 -10 46 -32 46 -23 0 -24 -3 -24 -60 0 -52 4 -65 26 -87 20 -20
31 -24 57 -19 17 4 37 12 43 19 7 6 14 50 16 97 3 74 1 85 -15 88 -9 2 -19 -2
-22 -10z"/>
<path d="M580 5286 c0 -3 -11 -100 -25 -216 -30 -250 -29 -230 -10 -230 21 0
22 3 45 189 25 202 26 261 5 261 -8 0 -15 -2 -15 -4z"/>
<path d="M5530 5265 c-7 -9 -10 -29 -7 -48 3 -19 1 -40 -3 -47 -13 -21 -50 16
-50 50 0 32 -7 41 -26 33 -16 -6 -19 -59 -4 -97 18 -47 77 -58 114 -20 21 21
23 144 2 144 -7 0 -19 -7 -26 -15z"/>
<path d="M1759 5228 c-53 -65 -53 -64 -3 -92 26 -14 48 -26 50 -26 2 0 4 36 4
80 0 44 -4 80 -8 80 -4 0 -24 -19 -43 -42z"/>
<path d="M732 5239 c-12 -32 -34 -275 -36 -398 -1 -119 11 -141 79 -141 74 0
73 -2 104 270 19 168 25 249 18 258 -22 28 -36 -16 -63 -193 -30 -204 -37
-228 -61 -223 -28 5 -33 56 -23 247 7 120 7 188 1 194 -7 7 -13 2 -19 -14z"/>
<path d="M796 5211 c-3 -5 -10 -60 -16 -122 -21 -235 -5 -278 24 -66 18 135
20 197 7 197 -6 0 -12 -4 -15 -9z"/>
<path d="M957 5193 c-21 -34 -45 -370 -28 -401 17 -31 67 -55 100 -47 53 11
71 43 81 141 12 116 13 294 1 294 -17 0 -22 -17 -47 -157 -27 -149 -37 -176
-62 -171 -15 3 -17 22 -17 172 0 119 -3 170 -12 173 -6 2 -13 0 -16 -4z"/>
<path d="M1026 5172 c-8 -13 -26 -170 -26 -224 0 -51 15 -63 29 -25 8 19 31
203 31 242 0 16 -25 21 -34 7z"/>
<path d="M6669 5167 c-14 -10 -18 -46 -24 -221 -7 -203 -8 -210 -32 -233 -13
-14 -31 -23 -40 -21 -33 6 -43 48 -44 188 -1 74 -4 164 -8 200 -5 57 -9 65
-28 68 -30 4 -31 -1 -37 -280 l-5 -237 37 -31 c29 -24 46 -30 84 -30 41 0 54
5 83 33 47 43 55 94 55 365 0 221 -2 229 -41 199z"/>
<path d="M1170 4989 l0 -151 29 -29 c35 -34 77 -38 112 -10 23 18 24 26 27
170 3 133 2 151 -12 151 -9 0 -16 -3 -16 -7 -1 -5 -7 -57 -14 -116 -15 -116
-25 -139 -54 -121 -14 9 -19 35 -26 138 -8 113 -10 126 -27 126 -18 0 -19 -10
-19 -151z"/>
<path d="M6360 5125 c-7 -9 -15 -75 -20 -176 -4 -89 -13 -166 -18 -171 -5 -5
-18 -8 -28 -6 -21 4 -31 70 -33 235 -1 99 -6 123 -26 123 -22 0 -25 -26 -25
-245 l0 -214 26 -20 c28 -22 74 -27 104 -11 34 18 43 68 48 288 4 210 1 232
-28 197z"/>
<path d="M1245 5108 c-9 -32 -14 -165 -5 -178 17 -27 25 1 28 96 3 65 0 94 -7
94 -7 0 -13 -6 -16 -12z"/>
<path d="M6106 5088 c-3 -13 -7 -83 -10 -156 -2 -74 -7 -136 -10 -139 -3 -3
-12 -3 -21 0 -12 5 -15 28 -15 134 0 145 -5 173 -30 173 -15 0 -18 -16 -24
-129 -9 -156 0 -243 26 -276 24 -31 50 -32 82 -2 23 21 25 30 35 187 15 229
15 230 -9 230 -12 0 -21 -8 -24 -22z"/>
<path d="M1377 5093 c-3 -4 -8 -53 -11 -108 -7 -104 0 -136 35 -158 25 -16 64
0 78 30 28 59 26 230 -2 220 -6 -2 -18 -40 -27 -85 -25 -129 -43 -126 -48 6
-4 81 -13 115 -25 95z"/>
<path d="M5823 5070 c-6 -14 -13 -97 -17 -186 l-7 -160 35 -19 c35 -19 36 -19
63 1 l28 21 3 167 c1 92 -2 174 -7 184 -11 20 -17 -12 -25 -140 -4 -47 -9 -93
-12 -102 -18 -47 -33 12 -35 134 0 41 -4 86 -9 100 l-7 25 -10 -25z"/>
<path d="M6566 5059 c-3 -17 -6 -88 -6 -158 0 -119 9 -166 27 -147 13 13 10
329 -3 333 -6 2 -14 -10 -18 -28z"/>
<path d="M5716 5063 c-2 -10 -8 -54 -11 -98 -12 -159 -27 -164 -45 -15 -13
100 -15 110 -31 110 -6 0 -8 -59 -7 -152 l3 -152 27 -16 c26 -14 29 -14 55 12
25 26 27 35 36 163 5 74 6 142 3 150 -7 20 -24 19 -30 -2z"/>
<path d="M6280 4952 c0 -121 4 -152 21 -152 15 0 7 263 -8 268 -10 3 -13 -25
-13 -116z"/>
<path d="M5186 5034 c-9 -9 -16 -33 -16 -57 0 -48 -13 -77 -25 -57 -4 7 -13
33 -19 58 -13 49 -33 69 -60 59 -12 -5 -16 -20 -16 -64 0 -69 18 -184 30 -197
12 -12 104 12 142 37 40 28 49 61 37 144 -13 90 -36 115 -73 77z"/>
<path d="M5535 5038 c-2 -7 -8 -49 -12 -92 -11 -115 -43 -111 -43 5 0 48 -21
82 -35 58 -11 -17 5 -189 20 -226 18 -42 56 -45 82 -7 21 33 26 264 6 271 -7
3 -15 -1 -18 -9z"/>
<path d="M1691 5006 c-26 -31 -6 -47 51 -44 49 3 53 5 53 28 0 23 -4 25 -46
28 -32 2 -50 -2 -58 -12z"/>
<path d="M1681 4906 c-22 -27 -2 -46 48 -46 55 0 75 14 60 42 -12 22 -90 26
-108 4z"/>
<path d="M1705 4751 l-30 -6 -3 -106 c-2 -84 0 -109 12 -118 24 -20 36 -4 36
47 0 54 9 92 20 92 5 0 14 -31 20 -70 13 -76 25 -93 47 -64 18 24 13 195 -7
219 -13 15 -42 17 -95 6z"/>
<path d="M5171 4741 c-12 -21 -15 -112 -5 -148 8 -29 40 -30 55 -1 6 12 12 53
13 92 1 70 1 71 -26 74 -18 2 -30 -3 -37 -17z"/>
<path d="M5067 4722 c-12 -13 -17 -36 -17 -83 0 -142 70 -162 85 -25 10 98
-26 155 -68 108z"/>
<path d="M1423 4563 c4 -92 9 -188 13 -212 8 -52 -10 -51 -20 1 -4 26 -46 345
-46 356 0 6 -39 1 -43 -5 -11 -19 53 -421 79 -499 25 -75 64 -154 76 -154 11
0 7 164 -11 545 -6 128 -6 130 -30 133 l-24 4 6 -169z"/>
<path d="M1250 4627 c0 -70 25 -267 57 -455 18 -105 23 -156 16 -163 -19 -19
-52 108 -93 356 -22 132 -40 252 -40 268 0 20 -5 27 -20 27 -27 0 -26 -19 5
-260 42 -318 65 -405 151 -555 54 -94 81 -125 106 -125 10 0 18 2 18 5 0 2
-16 83 -35 178 -19 96 -56 302 -80 458 -51 320 -51 319 -71 319 -10 0 -14 -14
-14 -53z"/>
<path d="M1059 4623 c-8 -20 -8 -54 0 -118 6 -49 18 -162 26 -250 9 -88 27
-238 41 -334 14 -95 23 -175 20 -178 -11 -12 -71 225 -95 377 -6 36 -20 164
-31 285 -19 207 -26 234 -52 235 -12 0 -9 -117 7 -386 16 -265 29 -342 78
-472 37 -99 144 -285 158 -277 12 8 11 90 -1 235 -13 147 -98 837 -108 875
-11 39 -30 43 -43 8z"/>
<path d="M850 4602 l-23 -18 12 -220 c7 -120 19 -318 26 -439 16 -233 18 -311
10 -303 -3 2 -16 70 -29 149 -23 136 -34 252 -56 622 -5 86 -12 162 -15 167
-3 6 -15 10 -25 10 -30 0 -33 -45 -20 -276 16 -314 37 -462 101 -727 26 -106
39 -139 73 -190 66 -99 70 -94 62 80 -3 83 -13 215 -21 294 -8 79 -24 304 -35
499 -12 195 -25 359 -29 363 -4 4 -18 -1 -31 -11z"/>
<path d="M5913 4589 c-6 -8 -19 -66 -28 -129 -42 -289 -133 -640 -166 -640
-14 0 -11 19 26 182 41 175 55 288 55 439 0 74 -4 111 -14 124 -13 18 -14 17
-19 -11 -3 -16 -9 -69 -12 -119 -14 -209 -56 -480 -96 -620 -27 -92 -49 -151
-97 -260 -22 -49 -43 -105 -46 -122 -12 -53 17 -41 72 27 151 193 279 515 327
825 19 118 17 327 -2 304z"/>
<path d="M5666 4503 c-17 -240 -46 -373 -107 -498 -30 -62 -74 -123 -83 -114
-3 3 6 39 19 81 34 107 107 470 108 543 2 54 0 60 -20 63 -23 3 -23 5 -43
-158 -26 -208 -65 -358 -145 -565 -25 -64 -45 -121 -45 -126 0 -23 59 -7 99
27 159 137 268 445 259 734 -2 79 -6 95 -20 98 -14 3 -17 -10 -22 -85z"/>
<path d="M5476 4518 c-21 -173 -37 -271 -46 -286 -12 -17 -11 -6 5 198 6 68
-4 115 -19 99 -3 -3 -10 -59 -16 -125 -5 -65 -17 -172 -26 -237 -12 -84 -14
-121 -7 -128 6 -6 16 -8 21 -5 15 9 89 203 103 267 16 74 18 251 2 256 -7 3
-14 -12 -17 -39z"/>
<path d="M6000 4551 c0 -5 -20 -170 -45 -368 -24 -197 -49 -414 -54 -483 -10
-124 -29 -206 -96 -399 -51 -151 -25 -155 69 -12 123 184 187 346 231 587 23
123 55 494 55 631 0 51 -2 54 -22 51 -28 -4 -28 -8 -57 -370 -12 -140 -28
-293 -37 -339 -17 -89 -68 -234 -86 -245 -12 -8 -13 -10 26 311 41 339 67 607
60 627 -5 18 -44 26 -44 9z"/>
<path d="M473 4248 c7 -326 37 -726 63 -848 21 -97 75 -253 125 -360 43 -91
66 -123 82 -113 11 7 11 -1 -38 848 -36 611 -48 761 -60 773 -14 14 -34 -32
-41 -96 -13 -127 13 -696 46 -990 23 -196 24 -222 11 -222 -11 0 -21 47 -55
250 -28 165 -37 266 -66 715 -18 270 -23 322 -37 333 -9 6 -21 12 -26 12 -7 0
-8 -110 -4 -302z"/>
<path d="M6657 4528 l-25 -23 -11 -361 c-15 -485 -36 -640 -144 -1068 -42
-167 -67 -219 -67 -139 0 54 25 247 49 379 43 240 69 591 72 973 1 164 0 175
-20 195 -17 16 -23 18 -30 8 -4 -7 -11 -104 -15 -215 -8 -250 -22 -480 -41
-657 -8 -74 -26 -247 -40 -385 -38 -365 -70 -580 -115 -760 -39 -157 -48 -215
-32 -215 12 0 86 133 127 229 145 341 250 738 310 1171 32 236 46 878 19 887
-7 2 -23 -6 -37 -19z"/>
<path d="M5100 4503 c-31 -16 -35 -23 -38 -60 -3 -40 -2 -43 23 -43 46 0 94
26 101 56 14 55 -26 77 -86 47z"/>
<path d="M6230 4508 c0 -7 -5 -52 -10 -99 -28 -247 -71 -944 -68 -1109 1 -96
-1 -242 -6 -325 -7 -137 -7 -149 8 -135 18 18 86 195 115 300 36 131 89 450
102 610 7 85 13 292 13 460 1 298 1 305 -19 305 -26 0 -30 -31 -44 -365 -25
-551 -36 -671 -77 -792 -8 -27 -20 -48 -26 -48 -11 0 -10 7 18 395 21 277 25
806 7 812 -7 3 -13 -1 -13 -9z"/>
<path d="M126 4488 c-11 -35 -15 -427 -6 -618 15 -332 43 -526 122 -835 52
-206 174 -617 194 -656 27 -52 39 -31 36 62 -4 107 -30 519 -42 669 -6 63 -19
288 -30 500 -29 542 -50 854 -58 861 -4 4 -17 3 -29 -2 -22 -8 -23 -13 -23
-136 0 -119 22 -808 35 -1113 3 -74 13 -186 21 -247 16 -116 15 -158 -4 -111
-9 22 -88 416 -106 528 -17 110 -27 289 -36 654 -7 291 -13 412 -21 423 -21
24 -49 36 -53 21z"/>
<path d="M1759 4347 c-30 -21 -34 -28 -32 -63 3 -46 30 -131 45 -140 21 -13
37 23 47 104 7 57 7 90 0 103 -13 24 -19 24 -60 -4z"/>
<path d="M5060 4234 l1 -109 21 39 c30 59 59 149 50 158 -4 4 -22 11 -40 14
l-32 7 0 -109z"/>
<path d="M1610 3293 c-47 -2 -95 -5 -107 -8 -12 -3 -72 -46 -134 -97 l-113
-91 -71 39 c-63 35 -77 38 -141 38 -79 -1 -122 -19 -157 -66 -31 -41 -11 -58
72 -59 l66 -1 -45 -20 c-62 -28 -110 -75 -110 -109 l0 -27 123 -3 c115 -4 126
-6 165 -32 23 -15 51 -45 62 -67 30 -58 26 -107 -15 -186 -46 -88 -46 -104 3
-104 55 0 137 51 172 107 40 62 47 133 27 253 l-16 95 25 32 c20 27 142 141
277 261 40 35 47 53 20 50 -10 -1 -56 -3 -103 -5z"/>
<path d="M5046 3259 c-3 -13 -10 -48 -16 -77 -19 -100 -62 -144 -90 -92 -6 11
-17 20 -25 20 -12 0 -15 -15 -15 -69 0 -95 10 -104 104 -95 119 12 121 13 121
70 -1 27 -4 76 -8 109 l-8 60 67 -70 c37 -38 107 -116 155 -173 l89 -102 -6
-98 c-4 -63 -2 -112 5 -140 21 -77 129 -172 196 -172 32 0 32 15 0 110 -42
122 -31 210 31 259 48 38 114 27 203 -33 43 -28 44 -28 58 -10 21 28 9 70 -37
129 -22 29 -40 55 -40 60 0 4 27 5 60 1 69 -8 84 6 57 48 -41 62 -174 87 -299
56 l-58 -14 -148 101 -148 101 -101 3 c-81 3 -105 8 -122 23 -20 18 -20 18
-25 -5z"/>
<path d="M1746 3193 c-3 -3 -6 -34 -6 -68 0 -58 2 -64 37 -98 20 -20 45 -37
56 -37 18 0 19 5 13 60 -12 101 -22 118 -87 147 -3 1 -9 0 -13 -4z"/>
<path d="M1609 2949 c-10 -6 -14 -29 -14 -76 l0 -68 130 -32 c72 -18 153 -34
180 -35 l50 -3 3 37 c4 47 -27 83 -64 74 -17 -5 -34 0 -53 13 -51 37 -77 42
-97 20 -26 -29 -41 -23 -48 21 -3 22 -7 40 -9 40 -1 0 -16 4 -33 9 -18 5 -37
5 -45 0z"/>
<path d="M5094 2914 c-9 -34 18 -64 44 -48 22 14 27 41 12 59 -20 24 -49 18
-56 -11z"/>
<path d="M4963 2904 c-9 -24 10 -49 38 -49 20 0 24 5 24 30 0 25 -4 30 -28 33
-18 2 -29 -2 -34 -14z"/>
<path d="M4842 2898 c-18 -18 -15 -36 7 -48 15 -7 23 -6 35 6 9 8 16 19 16 23
0 11 -23 31 -35 31 -6 0 -16 -5 -23 -12z"/>
<path d="M4890 2803 c-102 -5 -110 -8 -110 -46 0 -18 6 -41 13 -52 13 -17 22
-17 158 -6 207 17 209 18 209 51 0 64 -7 66 -270 53z"/>
<path d="M1608 2734 c-5 -4 -8 -20 -8 -35 0 -33 5 -35 212 -80 161 -34 198
-33 198 5 0 29 -17 37 -174 76 -131 33 -217 46 -228 34z"/>
<path d="M4752 2645 c-43 -19 -62 -66 -62 -153 0 -49 4 -73 15 -82 30 -25 43
-5 47 75 3 66 7 80 27 96 28 23 64 25 84 4 9 -9 18 -45 22 -90 4 -41 12 -78
17 -81 21 -13 38 19 38 71 0 79 -10 113 -42 146 -23 23 -38 29 -71 29 -23 -1
-57 -7 -75 -15z"/>
<path d="M5026 2645 c-16 -8 -35 -23 -41 -32 -26 -35 -25 -191 1 -200 7 -2 13
22 16 72 4 53 10 81 23 95 40 44 91 12 124 -76 11 -27 22 -48 25 -46 3 1 11 2
16 2 31 0 -7 136 -47 173 -29 25 -82 31 -117 12z"/>
<path d="M1530 2570 c0 -27 3 -31 23 -28 16 2 22 10 22 28 0 18 -6 26 -22 28
-20 3 -23 -1 -23 -28z"/>
<path d="M4802 2568 c-13 -13 -16 -96 -6 -136 5 -16 13 -22 28 -20 19 3 21 9
21 83 0 63 -3 80 -15 83 -9 1 -21 -3 -28 -10z"/>
<path d="M1720 2555 c-10 -12 -10 -18 0 -30 7 -8 18 -15 25 -15 19 0 36 25 29
44 -8 20 -38 21 -54 1z"/>
<path d="M5051 2551 c-10 -17 -1 -114 11 -126 3 -3 17 -1 32 5 26 10 27 13 21
53 -15 84 -41 112 -64 68z"/>
<path d="M1874 2535 c-8 -20 4 -35 26 -35 23 0 32 13 24 34 -8 20 -43 21 -50
1z"/>
<path d="M2073 2504 c-3 -8 1 -22 9 -30 13 -13 16 -13 27 0 7 9 11 23 7 31 -7
20 -35 19 -43 -1z"/>
<path d="M1463 2424 c-13 -20 -18 -55 -21 -143 -4 -116 -4 -116 23 -143 35
-35 94 -51 168 -46 88 7 96 18 108 168 11 132 9 140 -38 140 -28 0 -31 -5 -54
-102 -11 -45 -24 -88 -31 -95 -16 -19 -42 -16 -64 8 -17 19 -19 34 -16 124 3
100 2 103 -20 109 -34 9 -36 8 -55 -20z"/>
<path d="M1791 2356 c-17 -21 -25 -164 -12 -214 16 -58 39 -78 104 -92 67 -14
120 -5 155 25 25 22 27 30 30 120 5 115 -1 141 -30 149 -33 8 -44 -9 -63 -97
-13 -63 -21 -80 -40 -89 -16 -7 -29 -7 -44 1 -19 11 -21 20 -21 96 0 46 -3 90
-6 99 -8 20 -57 21 -73 2z"/>
<path d="M6711 2356 c-10 -11 -9 -21 4 -45 12 -24 13 -36 4 -52 -11 -22 -18
-22 -100 -3 -36 8 -68 -37 -76 -107 -6 -49 -8 -52 -48 -70 -23 -10 -73 -37
-111 -59 -38 -22 -72 -40 -76 -40 -4 0 -17 18 -28 40 l-20 40 -81 0 -80 0 -15
35 c-17 42 -35 44 -64 8 -22 -28 -19 -37 22 -57 24 -13 26 -25 13 -103 -9 -52
2 -68 57 -85 22 -6 42 -18 45 -26 14 -35 -134 -142 -197 -142 -14 0 -59 17
-100 37 -72 36 -80 37 -175 37 -90 0 -110 -3 -205 -37 -58 -21 -125 -50 -150
-65 -45 -28 -220 -233 -220 -259 0 -7 -16 -52 -35 -100 -23 -60 -41 -130 -54
-218 -22 -138 -35 -165 -85 -165 -11 -1 -32 -7 -46 -15 -14 -8 -41 -14 -60
-15 -19 0 -53 -11 -75 -25 -23 -14 -56 -25 -76 -25 -28 0 -49 -10 -84 -39 -43
-36 -101 -61 -139 -61 -9 0 -28 -7 -41 -16 -29 -19 -92 -35 -111 -27 -8 3 -14
11 -14 19 0 22 130 112 185 129 28 8 82 32 120 53 59 32 77 49 117 108 26 38
67 86 90 106 41 36 43 40 49 110 20 217 28 237 108 280 20 11 31 25 31 39 0
13 10 53 22 90 26 80 26 80 -71 145 -63 42 -65 43 -98 28 -18 -7 -49 -21 -68
-29 -23 -10 -37 -24 -41 -43 -8 -31 -44 -92 -65 -108 -8 -6 -49 -16 -92 -23
-95 -13 -144 -37 -215 -105 -61 -57 -212 -279 -212 -311 0 -26 -18 -45 -42
-45 -25 0 -84 31 -195 101 -145 93 -196 98 -318 34 -86 -44 -105 -47 -213 -35
-102 11 -181 38 -316 106 -140 70 -227 136 -289 217 -55 71 -119 131 -166 157
-45 23 -177 32 -240 16 -31 -8 -82 -18 -113 -21 -64 -7 -91 -28 -140 -107 -16
-27 -36 -48 -43 -48 -7 0 -60 50 -117 111 -64 69 -123 123 -156 142 -31 17
-65 47 -80 69 -29 44 -67 68 -109 68 -22 0 -46 -19 -118 -95 -104 -110 -201
-181 -223 -163 -8 7 -29 36 -48 66 -19 29 -59 85 -89 124 -36 48 -58 88 -66
122 -6 28 -20 65 -30 82 -11 17 -19 36 -19 43 0 22 37 10 58 -19 27 -36 45
-38 66 -8 23 33 20 56 -13 89 -42 41 -108 41 -171 -1 -49 -33 -127 -60 -172
-60 -27 0 -28 2 -28 45 0 34 -5 47 -21 55 -31 17 -65 4 -159 -58 -90 -60 -130
-114 -130 -174 0 -15 -3 -29 -7 -31 -5 -3 -34 0 -65 5 -55 9 -58 12 -68 46 -5
21 -10 45 -10 54 0 22 -38 48 -70 48 -14 0 -36 6 -50 13 -21 11 -24 18 -22 50
4 47 -17 57 -65 32 -49 -27 -62 -54 -34 -76 28 -23 27 -53 -5 -106 -24 -41
-24 -46 -10 -68 8 -13 36 -38 61 -56 32 -23 45 -39 45 -56 0 -27 -26 -83 -39
-83 -18 0 -20 -31 -6 -71 8 -23 15 -73 15 -112 0 -69 0 -70 39 -104 24 -20 52
-60 70 -97 26 -55 34 -64 63 -70 22 -4 50 -24 84 -60 35 -38 63 -58 91 -65 42
-12 123 -87 123 -115 0 -17 -60 -66 -118 -95 l-42 -21 0 -63 c0 -43 -6 -74
-20 -100 -27 -50 -25 -64 11 -82 41 -22 35 -42 -28 -85 -29 -19 -60 -50 -70
-68 -18 -32 -17 -34 5 -72 27 -48 18 -74 -34 -96 -19 -8 -34 -18 -34 -23 0
-13 59 -91 69 -91 17 0 33 30 28 50 -3 13 3 31 17 46 20 25 24 25 62 14 68
-20 86 -12 116 53 15 31 34 57 42 57 8 0 31 -16 50 -36 31 -32 39 -36 70 -30
49 9 204 -13 242 -34 26 -15 34 -16 55 -4 30 17 208 19 244 2 23 -10 28 -8 58
24 28 31 42 37 106 48 94 16 160 7 183 -23 10 -12 28 -48 40 -79 23 -57 23
-58 107 -95 47 -21 102 -50 124 -66 34 -25 42 -27 69 -18 53 19 159 14 193 -9
l30 -19 30 29 c25 24 48 33 115 46 60 12 95 25 120 44 20 15 60 41 91 59 85
48 129 39 129 -25 0 -26 -14 -47 -70 -109 -73 -80 -98 -132 -86 -179 8 -33 23
-33 56 -1 19 19 43 27 100 35 41 5 94 15 118 21 43 12 44 12 80 -26 68 -69
112 -66 112 10 0 44 41 155 57 155 5 0 49 -21 98 -46 90 -46 187 -74 258 -74
43 0 45 7 15 60 -13 21 -20 41 -17 45 20 19 71 -16 159 -106 l95 -99 59 0 c62
0 59 -3 39 48 -8 18 9 15 82 -18 60 -27 77 -30 167 -30 54 0 108 5 119 10 34
19 22 38 -34 54 -59 17 -110 51 -105 71 2 7 47 54 102 105 l98 93 88 -7 c54
-4 152 -24 256 -52 333 -90 491 -80 720 47 80 44 101 68 154 174 33 66 37 70
73 73 25 2 49 -4 71 -17 18 -12 46 -21 61 -21 42 0 82 -29 98 -72 l16 -39 49
7 c47 6 51 4 91 -31 37 -34 44 -37 67 -26 37 17 95 13 134 -8 34 -18 36 -18
85 1 30 12 74 20 110 20 54 0 64 3 116 44 55 42 57 46 79 125 38 141 38 135
-23 224 -30 44 -64 99 -76 122 -17 35 -27 43 -49 43 -15 0 -74 12 -132 26
-141 35 -240 29 -457 -24 -87 -22 -196 -45 -243 -52 -77 -11 -89 -11 -118 4
-43 22 -48 39 -23 75 34 47 112 90 288 157 97 38 185 79 214 100 62 46 131
122 169 189 17 29 38 56 48 60 9 3 89 10 177 15 192 11 260 29 366 98 82 54
144 116 165 168 17 40 18 119 3 179 -14 57 -6 89 26 103 14 6 32 27 41 45 16
33 16 36 -11 81 -26 44 -26 48 -11 71 9 14 25 25 36 25 16 0 20 7 20 30 0 26
-7 33 -50 55 -58 29 -54 29 -69 11z m-22 -199 c79 -41 78 -81 -2 -94 -44 -7
-72 13 -81 57 -12 63 11 74 83 37z m-6069 -87 c7 -12 8 -39 5 -64 -6 -36 -4
-44 11 -50 16 -6 16 -8 4 -16 -21 -14 -74 -12 -88 2 -17 17 -15 28 7 28 11 0
22 9 25 20 3 11 9 29 12 40 4 15 1 20 -15 20 -26 0 -27 15 -3 29 24 15 30 14
42 -9z m365 -32 c25 -29 27 -38 21 -88 -8 -78 -25 -130 -41 -130 -10 0 -12 13
-8 60 10 109 -27 131 -173 101 -49 -10 -90 -17 -92 -16 -8 7 26 48 56 66 45
29 78 37 149 38 57 1 63 -1 88 -31z m-757 -10 c29 -29 10 -88 -27 -88 -25 0
-81 44 -81 64 0 9 59 35 81 36 8 0 20 -5 27 -12z m6006 -68 c31 -77 21 -87
-55 -59 -76 29 -80 35 -41 70 47 42 76 39 96 -11z m367 25 c71 -25 79 -38 79
-120 0 -62 -4 -77 -29 -118 -54 -84 -171 -150 -324 -183 -40 -8 -149 -18 -244
-21 -185 -6 -203 -3 -203 42 0 32 17 42 85 50 77 9 117 36 310 205 83 73 164
139 180 146 40 18 93 17 146 -1z m-5693 -78 c5 -25 -168 -253 -179 -236 -5 8
-9 22 -9 31 0 9 -15 29 -33 45 -46 38 -81 88 -74 106 3 7 38 24 79 37 156 50
209 54 216 17z m-475 -22 c86 -36 156 -129 266 -354 38 -79 88 -195 110 -258
38 -104 41 -121 35 -178 -4 -35 -4 -75 0 -90 l7 -27 39 36 c36 32 46 36 96 36
31 0 98 -10 148 -21 l91 -22 118 -123 c97 -101 131 -129 183 -154 35 -16 64
-33 64 -37 0 -32 -25 -140 -34 -145 -6 -4 -25 -8 -43 -8 -17 0 -88 -11 -157
-25 -245 -49 -531 -43 -650 13 -81 39 -139 83 -176 134 -27 37 -30 49 -30 115
0 112 30 160 137 219 29 16 55 35 58 42 14 38 -70 134 -210 241 -189 143 -262
235 -285 362 -17 92 10 182 70 233 37 31 105 35 163 11z m1246 -26 c48 -58 78
-84 134 -118 55 -34 157 -148 236 -263 40 -59 53 -67 155 -83 99 -16 119 -24
175 -67 25 -18 101 -69 170 -113 69 -45 126 -85 126 -90 0 -5 -22 -16 -50 -24
-76 -23 -155 -106 -184 -194 -26 -78 -33 -81 -127 -43 -55 22 -61 28 -95 92
-20 38 -42 70 -49 72 -18 6 -30 -18 -30 -62 l0 -38 -47 7 c-51 7 -73 20 -73
40 0 7 -6 18 -13 24 -11 9 -17 3 -30 -29 -18 -46 -38 -56 -122 -61 l-60 -4 -3
45 c-4 53 -15 68 -37 50 -16 -14 -20 -76 -6 -99 14 -21 -122 -124 -152 -115
-96 29 -214 126 -203 167 17 69 18 107 4 107 -8 0 -23 -9 -33 -20 -23 -26 -39
-25 -76 2 -20 15 -31 34 -36 60 -8 51 -19 56 -52 24 -27 -26 -30 -26 -75 -15
-46 11 -46 11 -46 55 0 26 -5 44 -11 44 -7 0 -34 -20 -60 -45 -51 -47 -82 -57
-94 -28 -3 10 -9 45 -12 79 l-6 60 69 58 c38 31 110 85 159 119 122 83 323
252 420 354 44 46 86 83 94 83 7 0 25 -14 40 -31z m-541 -101 c38 -51 76 -99
85 -107 22 -18 21 -26 -4 -50 -44 -41 -337 -241 -353 -241 -24 0 -69 100 -60
134 4 17 0 35 -10 51 -24 37 -21 51 40 141 l55 84 52 0 c58 0 93 18 107 56 5
13 12 24 14 24 2 0 36 -42 74 -92z m3772 -38 c28 -15 40 -62 28 -107 -7 -27
-32 -59 -89 -114 l-79 -76 25 -23 c37 -35 33 -81 -17 -181 -33 -66 -61 -104
-133 -176 -84 -85 -101 -97 -207 -147 -123 -58 -149 -79 -218 -175 -26 -36
-55 -64 -69 -68 -31 -8 -71 14 -91 50 -14 26 -13 31 26 105 23 42 56 127 73
187 57 195 153 370 260 473 59 56 86 70 154 78 57 7 74 -2 103 -52 10 -18 12
-17 41 6 17 14 38 30 48 36 18 10 18 11 0 41 -16 27 -17 35 -5 62 27 67 101
107 150 81z m895 -32 c20 -9 24 -20 30 -95 l7 -84 39 -25 c21 -13 39 -28 39
-33 0 -19 -68 -97 -114 -132 -27 -20 -129 -72 -228 -114 -204 -89 -237 -108
-331 -193 -68 -62 -89 -71 -144 -56 -29 8 -31 17 -22 105 10 92 48 217 96 318
46 96 152 205 247 251 112 55 211 81 290 74 37 -3 78 -10 91 -16z m-3083 -159
c103 -106 150 -146 208 -179 135 -76 147 -86 177 -147 20 -41 35 -59 51 -61
19 -3 22 1 22 33 0 30 3 35 18 31 103 -32 152 -38 246 -32 60 4 122 15 155 28
104 38 152 50 176 44 12 -3 69 -37 126 -74 57 -38 126 -81 153 -97 l48 -28 -6
-46 c-7 -52 -75 -198 -105 -225 -19 -17 -26 -18 -95 -6 -112 19 -154 11 -309
-59 -75 -34 -152 -65 -171 -68 -36 -6 -24 -16 -160 146 -91 109 -280 244 -591
426 -224 131 -212 118 -216 219 -2 46 -7 88 -12 92 -13 14 -28 -12 -35 -61 -4
-27 -12 -50 -18 -52 -19 -6 -72 46 -79 77 -8 38 -26 49 -39 25 -32 -54 -89
-72 -131 -41 -18 13 -17 17 24 84 23 39 48 75 55 81 20 17 135 29 258 28 l117
-2 133 -136z m35 -505 c29 -18 48 -57 39 -79 -5 -15 -11 -13 -41 14 -43 37
-93 41 -143 11 -56 -35 -69 -113 -29 -190 44 -88 171 -127 347 -109 118 13
184 8 232 -17 18 -9 68 -54 113 -100 52 -53 91 -85 110 -89 56 -12 59 -15 46
-28 -6 -7 -49 -14 -94 -17 l-82 -5 -7 -43 c-9 -54 -38 -95 -82 -116 -69 -33
-88 -11 -35 40 43 40 59 76 59 128 0 80 -99 181 -203 207 -52 13 -163 7 -179
-9 -25 -25 1 -40 79 -46 92 -8 148 -32 198 -88 28 -30 35 -46 35 -78 0 -60
-20 -60 -86 -2 -31 28 -84 64 -118 80 -33 16 -96 47 -139 67 -87 42 -153 96
-198 161 -16 24 -35 44 -40 44 -19 0 1 -63 37 -118 38 -57 84 -91 224 -162
104 -52 107 -54 132 -104 17 -33 19 -52 15 -101 -7 -72 -38 -178 -52 -176 -6
0 -13 53 -18 118 -8 124 -18 163 -41 163 -16 0 -26 -42 -26 -109 0 -55 -26
-103 -72 -131 -34 -20 -102 -27 -112 -11 -3 5 12 31 33 57 51 65 63 90 63 129
0 41 -14 67 -104 197 -89 126 -119 192 -126 275 -8 99 39 192 123 245 35 22
103 18 142 -8z m233 -87 c56 -38 230 -206 230 -223 0 -9 -15 -7 -55 7 -46 16
-83 19 -240 19 -201 0 -249 10 -279 55 -28 43 -15 125 19 125 8 0 22 -12 32
-27 25 -42 43 -53 84 -53 51 0 89 44 89 104 0 24 3 45 6 49 8 7 52 -15 114
-56z m3176 -38 c79 -25 143 -81 183 -161 41 -82 42 -137 2 -201 -35 -53 -81
-80 -166 -96 -149 -28 -278 -5 -447 80 -143 72 -264 113 -376 130 -69 9 -86
16 -99 35 -20 31 -6 73 33 96 17 10 79 25 139 34 61 9 144 26 185 39 247 77
399 89 546 44z m-948 -44 c11 -10 11 -21 3 -51 -14 -50 -14 -112 -1 -151 11
-30 28 -43 83 -63 40 -14 35 -49 -16 -112 -58 -71 -126 -121 -217 -160 -70
-30 -84 -32 -215 -36 -124 -3 -151 -1 -235 21 -119 31 -193 65 -199 92 -3 18
-18 34 -32 35 -3 0 -12 -12 -20 -26 l-14 -27 -100 7 c-55 4 -115 11 -132 17
-29 9 -33 15 -33 46 0 43 26 100 54 118 12 8 91 30 175 50 121 27 191 51 320
106 240 104 338 139 406 149 72 10 155 3 173 -15z m-3120 -15 c83 -11 278 -69
318 -94 11 -8 31 -43 43 -78 13 -34 38 -91 57 -126 19 -34 34 -71 34 -82 0
-61 -246 -171 -430 -191 -83 -9 -108 -8 -166 7 -155 38 -224 87 -279 196 -41
83 -44 123 -14 204 31 83 71 121 154 150 78 26 153 30 283 14z m1836 -151 c61
-22 113 -67 122 -104 4 -15 0 -57 -9 -94 -9 -40 -13 -87 -10 -119 5 -49 3 -56
-23 -84 -37 -39 -98 -67 -146 -68 -49 0 -155 78 -181 134 l-18 38 -53 -6 c-29
-4 -65 -4 -80 0 -23 5 -27 12 -26 38 3 53 1 56 -55 81 -30 13 -55 28 -55 32 0
5 78 48 173 96 l172 87 69 -6 c38 -3 92 -14 120 -25z m-3435 -102 c38 -47 13
-129 -33 -105 -29 15 -76 59 -76 73 0 15 50 44 76 45 12 0 27 -6 33 -13z
m3018 -262 c43 -13 104 -41 135 -62 67 -45 231 -183 225 -190 -3 -2 -55 21
-116 52 -62 30 -116 53 -122 49 -6 -3 -7 -19 -4 -35 4 -15 2 -35 -3 -44 -7
-13 -19 -4 -63 51 -63 79 -124 115 -205 122 -53 4 -54 5 -54 37 0 17 3 35 7
38 15 16 126 6 200 -18z m-237 -121 c20 -18 28 -30 21 -37 -13 -13 -53 -2 -82
23 -21 17 -22 21 -9 30 23 15 36 12 70 -16z"/>
<path d="M6432 1911 c-21 -13 -10 -46 17 -49 35 -5 48 13 26 38 -20 22 -24 23
-43 11z"/>
<path d="M6570 1895 c-17 -20 -8 -50 16 -53 23 -3 49 21 39 38 -13 22 -43 30
-55 15z"/>
<path d="M6330 1805 c-25 -30 5 -57 40 -35 11 7 12 14 4 27 -15 23 -29 26 -44
8z"/>
<path d="M6460 1745 c-15 -18 -7 -43 16 -52 21 -8 59 30 51 51 -8 20 -51 21
-67 1z"/>
<path d="M6270 1665 c0 -31 26 -43 47 -22 13 13 14 19 3 31 -21 26 -50 20 -50
-9z"/>
<path d="M6162 1668 c-6 -6 -12 -20 -12 -31 0 -15 6 -18 33 -15 27 2 32 7 32
28 0 28 -32 39 -53 18z"/>
<path d="M422 1808 c-16 -16 -15 -33 4 -48 22 -19 54 12 38 37 -14 22 -27 26
-42 11z"/>
<path d="M285 1710 c-8 -25 1 -40 24 -40 28 0 46 26 31 45 -18 21 -48 19 -55
-5z"/>
<path d="M494 1556 c-10 -26 4 -48 28 -44 17 2 23 10 23 28 0 18 -6 26 -23 28
-13 2 -25 -3 -28 -12z"/>
<path d="M342 1528 c-17 -17 -15 -32 8 -53 16 -15 22 -15 35 -5 26 21 12 70
-20 70 -6 0 -16 -5 -23 -12z"/>
<path d="M540 1361 c0 -24 25 -45 45 -37 20 7 19 42 -1 50 -28 11 -44 6 -44
-13z"/>
<path d="M692 1348 c2 -25 8 -34 26 -36 30 -4 39 23 17 48 -28 31 -47 25 -43
-12z"/>
<path d="M1085 970 c-15 -17 -16 -24 -7 -45 22 -48 72 -19 55 32 -12 35 -25
38 -48 13z"/>
<path d="M627 873 c-13 -12 -7 -50 9 -64 14 -11 19 -10 35 10 14 17 16 27 9
42 -10 19 -40 26 -53 12z"/>
<path d="M896 864 c-13 -35 -7 -54 19 -54 21 0 25 5 25 29 0 17 -6 31 -16 35
-21 8 -21 8 -28 -10z"/>
<path d="M1142 808 c-17 -17 -15 -32 7 -52 35 -32 64 0 41 45 -12 22 -30 25
-48 7z"/>
<path d="M970 745 c-10 -12 -10 -18 0 -30 25 -30 57 -12 45 25 -8 24 -28 26
-45 5z"/>
<path d="M661 712 c-12 -22 3 -42 31 -42 24 0 34 26 18 45 -17 20 -37 19 -49
-3z"/>
<path d="M1341 696 c-19 -23 -10 -61 14 -61 16 0 20 7 20 34 0 38 -15 50 -34
27z"/>
<path d="M850 675 c-17 -21 -8 -50 18 -53 18 -3 22 1 22 26 0 33 -22 48 -40
27z"/>
<path d="M1060 625 c-10 -12 -10 -21 -2 -40 7 -14 16 -25 21 -25 16 0 33 29
29 52 -4 28 -30 35 -48 13z"/>
<path d="M1334 1580 c-25 -10 -64 -57 -64 -76 0 -36 61 -16 99 32 33 42 14 65
-35 44z"/>
<path d="M1421 1516 c-35 -36 -37 -66 -5 -66 21 0 84 63 84 84 0 28 -44 18
-79 -18z"/>
<path d="M1540 1493 c-32 -50 -47 -90 -37 -100 14 -13 59 10 78 40 21 35 22
98 2 104 -7 3 -26 -17 -43 -44z"/>
<path d="M1674 1495 c-8 -20 15 -111 31 -125 34 -28 45 64 14 121 -12 23 -37
25 -45 4z"/>
<path d="M1942 1497 c-18 -21 17 -121 46 -132 31 -12 35 13 12 69 -26 65 -42
82 -58 63z"/>
<path d="M1804 1486 c-7 -19 27 -138 41 -143 6 -1 17 1 25 7 12 7 11 18 -5 77
-14 47 -25 69 -38 71 -9 2 -20 -3 -23 -12z"/>
<path d="M1097 1392 c-36 -39 -9 -58 33 -24 13 11 20 24 16 30 -10 17 -31 15
-49 -6z"/>
<path d="M1221 1315 c-34 -39 -39 -55 -17 -55 17 0 66 56 66 76 0 23 -16 16
-49 -21z"/>
<path d="M2294 1275 c-8 -21 10 -55 57 -106 36 -39 68 -48 76 -23 5 16 -90
138 -110 142 -10 2 -20 -4 -23 -13z"/>
<path d="M1356 1258 c-25 -36 -17 -78 10 -60 15 10 34 47 34 66 0 23 -26 19
-44 -6z"/>
<path d="M1515 1243 c-16 -39 -22 -82 -14 -94 15 -23 39 19 39 68 0 44 -12 57
-25 26z"/>
<path d="M1653 1244 c-8 -21 5 -136 16 -147 5 -5 17 -7 25 -4 19 7 22 99 6
141 -11 29 -37 35 -47 10z"/>
<path d="M2130 1230 c0 -25 33 -92 54 -109 20 -16 60 -10 64 10 3 19 -84 119
-104 119 -8 0 -14 -9 -14 -20z"/>
<path d="M1984 1225 c-17 -44 21 -135 56 -135 27 0 26 42 -3 99 -24 49 -43 62
-53 36z"/>
<path d="M1837 1223 c-11 -10 -8 -92 3 -114 21 -38 40 -23 40 32 0 66 -20 105
-43 82z"/>
<path d="M2334 1035 c-13 -32 25 -115 52 -115 23 0 26 21 9 66 -19 49 -51 75
-61 49z"/>
<path d="M1540 974 c-16 -42 -13 -114 6 -114 19 0 44 58 44 105 0 28 -4 35
-20 35 -13 0 -24 -10 -30 -26z"/>
<path d="M865 1666 c-20 -48 -19 -66 5 -66 42 0 68 90 27 98 -12 3 -22 -7 -32
-32z"/>
<path d="M967 1693 c-9 -8 -9 -76 -1 -97 10 -25 43 -19 50 9 10 41 -4 95 -25
95 -10 0 -21 -3 -24 -7z"/>
<path d="M1074 1686 c-9 -24 4 -63 28 -86 19 -18 23 -18 31 -5 12 22 -15 99
-36 103 -10 2 -20 -4 -23 -12z"/>
<path d="M4863 1703 c-16 -6 -17 -69 -2 -78 14 -9 49 24 49 46 0 20 -28 39
-47 32z"/>
<path d="M4482 1474 c-23 -42 18 -72 52 -38 19 19 20 26 4 42 -17 17 -45 15
-56 -4z"/>
<path d="M4543 1344 c-3 -8 1 -22 9 -30 12 -12 17 -12 33 -1 23 17 14 47 -15
47 -11 0 -23 -7 -27 -16z"/>
<path d="M4695 1344 c-24 -25 -15 -58 17 -62 32 -4 50 22 37 56 -10 26 -31 28
-54 6z"/>
<path d="M4384 1295 c-7 -18 12 -45 32 -45 16 0 37 37 29 50 -10 16 -55 12
-61 -5z"/>
<path d="M4667 1193 c-14 -13 -6 -33 13 -33 13 0 20 7 20 20 0 19 -20 27 -33
13z"/>
<path d="M4434 1176 c-9 -22 4 -36 32 -36 21 0 25 4 22 23 -4 26 -45 37 -54
13z"/>
<path d="M4274 1145 c-8 -20 13 -45 32 -38 8 3 14 16 14 29 0 17 -6 24 -20 24
-11 0 -23 -7 -26 -15z"/>
<path d="M4485 1056 c-16 -12 -18 -18 -9 -33 14 -23 34 -23 48 -1 8 14 7 21
-5 33 -13 13 -17 13 -34 1z"/>
<path d="M4221 916 c-15 -18 -3 -46 20 -46 25 0 35 26 19 45 -15 19 -24 19
-39 1z"/>
<path d="M5482 1598 c-7 -7 -12 -22 -12 -35 0 -19 5 -23 30 -23 35 0 47 19 30
49 -12 24 -30 27 -48 9z"/>
<path d="M5627 1573 c-13 -12 -7 -41 9 -47 19 -7 54 20 54 41 0 13 -51 19 -63
6z"/>
<path d="M5517 1474 c-14 -14 -7 -43 13 -54 16 -8 24 -6 40 10 12 12 19 27 17
33 -4 13 -59 22 -70 11z"/>
<path d="M5700 1431 c-5 -11 -10 -24 -10 -29 0 -16 30 -23 51 -12 23 13 25 46
3 54 -25 10 -33 7 -44 -13z"/>
<path d="M5245 1390 c-8 -25 1 -40 24 -40 22 0 41 19 41 42 0 27 -56 25 -65
-2z"/>
<path d="M5561 1331 c-16 -28 11 -48 44 -33 30 14 32 28 6 42 -28 14 -39 13
-50 -9z"/>
<path d="M5335 1280 c-8 -13 13 -50 29 -50 8 0 20 7 27 16 11 14 10 18 -6 30
-22 16 -41 18 -50 4z"/>
<path d="M5184 1155 c-10 -25 4 -47 27 -43 31 4 49 35 29 48 -22 14 -50 12
-56 -5z"/>
<path d="M2664 1466 c-9 -23 36 -96 59 -96 13 0 1 54 -19 85 -18 28 -32 32
-40 11z"/>
<path d="M2540 1446 c0 -37 21 -86 36 -86 19 0 18 59 -2 88 -20 29 -34 28 -34
-2z"/>
<path d="M2960 1199 c0 -16 56 -69 74 -69 24 0 19 20 -11 52 -27 28 -63 38
-63 17z"/>
<path d="M2856 1155 c10 -26 64 -47 64 -26 0 16 -31 41 -50 41 -13 0 -17 -5
-14 -15z"/>
<path d="M3732 1115 c2 -18 10 -31 20 -33 20 -4 14 31 -9 50 -12 10 -14 7 -11
-17z"/>
<path d="M3604 1107 c-10 -28 38 -113 57 -101 16 10 9 61 -12 88 -23 29 -37
33 -45 13z"/>
<path d="M3457 1076 c-8 -20 36 -101 54 -101 20 0 13 52 -12 87 -23 31 -34 35
-42 14z"/>
<path d="M3900 1062 c1 -32 63 -122 85 -122 19 0 19 13 -2 53 -42 81 -83 116
-83 69z"/>
<path d="M3326 1052 c-11 -18 63 -122 86 -122 15 0 8 34 -13 70 -30 50 -60 72
-73 52z"/>
<path d="M3207 954 c-15 -15 32 -74 59 -74 12 0 1 39 -16 58 -21 23 -32 27
-43 16z"/>
<path d="M3826 941 c-16 -26 39 -101 74 -101 23 0 19 16 -18 73 -24 36 -45 47
-56 28z"/>
<path d="M3720 877 c0 -20 30 -57 46 -57 21 0 17 24 -9 48 -27 25 -37 28 -37
9z"/>
<path d="M5894 844 c-8 -33 6 -47 40 -38 32 8 34 28 4 48 -30 22 -37 20 -44
-10z"/>
<path d="M5507 783 c-16 -15 -5 -44 22 -57 32 -17 41 -13 41 19 0 35 -42 60
-63 38z"/>
<path d="M6045 730 c-18 -20 -18 -21 3 -43 28 -28 57 -13 57 29 0 37 -33 44
-60 14z"/>
<path d="M5680 715 c-19 -23 -8 -50 23 -53 23 -3 27 0 27 20 0 23 -16 48 -31
48 -4 0 -12 -7 -19 -15z"/>
<path d="M5885 660 c-10 -17 20 -44 40 -36 9 3 15 14 13 23 -4 21 -43 30 -53
13z"/>
<path d="M6197 604 c-4 -4 -7 -20 -7 -36 0 -23 4 -28 25 -28 29 0 43 25 28 49
-11 18 -35 25 -46 15z"/>
<path d="M5987 564 c-3 -4 1 -20 9 -36 17 -32 46 -35 52 -5 5 27 -43 59 -61
41z"/>
<path d="M4923 724 c-8 -21 30 -59 51 -51 19 7 21 38 4 55 -17 17 -48 15 -55
-4z"/>
<path d="M4673 674 c-10 -26 11 -49 43 -49 23 0 28 4 26 20 -8 43 -56 63 -69
29z"/>
<path d="M4395 590 c-18 -20 -18 -21 3 -43 28 -28 57 -13 57 29 0 37 -33 44
-60 14z"/>
<path d="M4727 543 c-23 -22 7 -68 37 -57 21 8 20 27 -2 47 -20 19 -26 20 -35
10z"/>
<path d="M5030 515 c-9 -11 -11 -22 -4 -32 13 -21 25 -21 38 -1 8 14 7 21 -5
33 -14 15 -17 15 -29 0z"/>
<path d="M4542 468 c-17 -17 -15 -32 9 -54 27 -24 54 -8 54 32 0 24 -5 30 -25
32 -14 2 -31 -3 -38 -10z"/>
<path d="M4810 375 c-16 -20 -6 -45 19 -45 23 0 32 18 19 43 -11 21 -22 22
-38 2z"/>
<path d="M1810 726 c-20 -26 -8 -61 22 -64 35 -4 60 37 38 63 -16 19 -44 19
-60 1z"/>
<path d="M2096 704 c-19 -19 -20 -44 -3 -68 17 -23 52 -14 68 16 9 16 6 24
-12 44 -26 28 -32 29 -53 8z"/>
<path d="M2326 597 c-22 -16 -18 -70 5 -75 21 -4 49 24 49 48 0 27 -32 43 -54
27z"/>
<path d="M2013 584 c-15 -40 54 -82 84 -51 16 16 15 18 -7 42 -27 28 -68 33
-77 9z"/>
<path d="M1811 466 c-26 -31 14 -71 45 -45 21 17 14 53 -12 57 -11 2 -26 -4
-33 -12z"/>
<path d="M2082 418 c-32 -32 -1 -89 37 -68 33 17 22 80 -14 80 -6 0 -16 -5
-23 -12z"/>
<path d="M3702 659 c-33 -12 -27 -54 7 -54 32 0 51 30 31 49 -11 10 -22 11
-38 5z"/>
<path d="M3902 598 c-19 -19 -14 -46 14 -64 24 -16 26 -16 42 0 15 15 15 19 2
44 -18 30 -40 38 -58 20z"/>
<path d="M3627 524 c-4 -4 -7 -16 -7 -26 0 -13 7 -18 26 -18 21 0 25 4 22 22
-3 23 -27 35 -41 22z"/>
<path d="M3821 487 c-17 -21 -3 -49 23 -45 15 2 21 10 21 28 0 28 -26 38 -44
17z"/>
<path d="M3872 378 c-17 -21 3 -46 25 -32 10 6 18 17 18 25 0 19 -29 23 -43 7z"/>
<path d="M1592 2338 c-15 -15 -16 -104 -2 -113 13 -8 30 37 30 80 0 38 -11 50
-28 33z"/>
<path d="M5211 2336 c-9 -10 -9 -31 -1 -77 17 -109 14 -138 -17 -150 -14 -5
-39 -7 -55 -4 -38 9 -53 40 -82 168 -7 28 -38 38 -52 15 -20 -32 18 -192 57
-242 12 -15 32 -31 45 -36 32 -13 138 8 169 32 22 17 25 27 25 79 0 73 -26
194 -47 214 -18 19 -27 19 -42 1z"/>
<path d="M560 2319 c-25 -10 -65 -24 -89 -30 -80 -19 -123 -85 -105 -157 10
-41 25 -49 47 -27 9 8 33 21 54 28 25 8 39 19 41 32 8 57 12 62 54 74 56 17
78 37 78 73 0 33 -14 35 -80 7z"/>
<path d="M2116 2304 c-19 -18 -19 -23 -6 -133 11 -99 34 -131 105 -151 64 -18
122 -5 141 31 21 42 34 120 23 141 -16 29 -56 22 -74 -12 -21 -41 -35 -38 -35
8 0 43 -16 77 -24 52 -2 -8 -7 -32 -11 -52 -3 -21 -10 -38 -15 -38 -9 0 -14
20 -26 100 -3 25 -11 51 -16 58 -14 17 -43 15 -62 -4z"/>
<path d="M4521 2311 c-11 -7 -12 -30 -6 -114 l7 -106 -32 -16 c-17 -9 -41 -15
-52 -13 -22 3 -27 14 -48 96 -22 86 -70 36 -70 -74 0 -58 4 -76 22 -99 21 -27
24 -27 90 -21 82 7 167 35 182 58 12 20 -8 248 -24 279 -11 20 -45 25 -69 10z"/>
<path d="M1905 2277 c-9 -34 -2 -80 12 -84 13 -5 27 52 21 83 -5 27 -27 28
-33 1z"/>
<path d="M4906 2278 c-3 -13 -7 -43 -10 -67 -3 -28 -13 -53 -28 -68 -22 -21
-25 -22 -45 -8 -12 8 -34 46 -49 85 -28 71 -48 87 -73 56 -11 -14 5 -129 30
-203 24 -74 95 -100 179 -67 58 24 74 59 66 148 -10 106 -23 146 -46 146 -12
0 -21 -8 -24 -22z"/>
<path d="M5105 2289 c-7 -10 1 -88 12 -115 3 -8 16 -14 30 -14 23 0 24 2 17
48 -4 26 -11 57 -15 70 -9 23 -33 30 -44 11z"/>
<path d="M4813 2275 c-8 -21 3 -83 18 -101 18 -21 33 -2 31 41 -2 59 -34 98
-49 60z"/>
<path d="M4447 2224 c-9 -9 -9 -87 -1 -108 3 -9 15 -16 25 -16 15 0 19 7 18
38 -2 67 -21 106 -42 86z"/>
</g>
</svg>
